<svg width="1200" height="1200" viewBox="0 0 1200 1200" fill="none" xmlns="http://www.w3.org/2000/svg">
<path d="M1200 0H0V1200H1200V0Z" fill=""/>
<g opacity="0.2">
<path opacity="0.0909091" d="M212.4 636L415.2 518.8C415.6 518.8 425.2 512.8 425.6 512.8C438 506 453.6 502.8 468.8 503.2C481.2 503.6 494.8 507.6 503.6 512.4L993.2 794C1005.6 801.2 1012.4 812.4 1012.4 824.8C1012.4 838.4 1004 851.2 988.8 859.6L777.6 981.6C773.2 984 767.2 986.8 762 988.4C753.6 991.2 744.4 992.8 735.2 992.8C722 992.8 709.6 990 700 984.4L208 701.6C195.6 694.4 188.8 683.2 188.8 670.8C188.8 657.6 197.2 644.8 212.4 636Z" fill="black"/>
<path opacity="0.1818" d="M213.6 636.8L417.2 519.2C418 518.8 427.2 513.6 428 513.2C440.8 506.4 456.8 504 471.6 504.8C482.8 505.2 498 510.4 506 514.8L992.8 794.8C1004.8 801.6 1011.2 812.4 1011.2 824C1011.2 836.8 1002.8 848.8 988.8 857.2L779.2 978.4C775.2 980.8 768.4 984 763.6 985.6C755.2 988.4 746.4 990 737.2 990.4C724 990.8 711.6 988 702.4 982.4L210.4 699.2C198.4 692.4 192 681.6 192 670C191.2 657.2 199.6 645.2 213.6 636.8Z" fill="black"/>
<path opacity="0.2727" d="M215.2 637.6L420 519.6C420.8 519.2 429.6 514.4 430.8 514C444 507.6 460 506 474.4 506.8C484 507.6 501.2 513.6 508.4 517.6L992.4 796C1003.6 802.4 1010 812.8 1010 824C1010 836 1002 847.6 988.4 855.2L780 975.6C776.4 977.6 768.8 981.2 764.8 982.8C756.4 985.6 747.6 987.6 738.4 988C725.2 988.4 712.8 985.6 703.6 980.4L211.6 697.2C200.4 690.8 194 680.4 194 669.2C193.6 657.2 201.6 645.6 215.2 637.6Z" fill="black"/>
<path opacity="0.3636" d="M216.8 638.8L422.4 520C423.6 519.2 431.6 514.8 433.2 514.4C446.8 508 462.8 507.2 477.2 508.4C485.6 509.2 504.4 516.4 510.4 520L992 796.8C1002.8 803.2 1008.8 812.8 1008.4 823.2C1008 834.4 1000.8 845.2 987.6 852.8L780.4 972.4C777.2 974 768.8 978.4 765.2 979.6C757.2 982.4 748.4 984.8 739.2 984.8C726 985.2 714 982.8 704.4 977.6L212.4 694.4C201.6 688 195.6 678.4 196 668C196.4 656.8 203.6 646 216.8 638.8Z" fill="black"/>
<path opacity="0.4545" d="M218 639.6L424.8 520.4C426.4 519.6 434 515.6 436 514.8C449.6 508.8 466.4 508.4 480.4 510C487.6 510.8 508 519.6 513.2 522.4L991.6 798C1002 804 1007.6 813.2 1007.2 822.8C1006.8 833.2 1000 843.6 987.6 850.8L781.6 969.6C778.8 971.2 769.6 976 766.8 976.8C758.8 979.6 750 982 740.8 982.4C728 983.2 715.6 980.8 706.4 975.2L214.4 692C204 686 198.4 676.8 198.8 667.2C198.8 656.8 205.6 646.8 218 639.6Z" fill="black"/>
<path opacity="0.5455" d="M219.6 640.4L427.2 520.4C429.2 519.2 436 515.6 438.4 514.8C452.4 508.8 469.2 509.6 482.8 511.2C488.8 512 510.8 522 515.2 524.4L991.2 798.4C1001.2 804 1006 812.4 1006 821.6C1005.6 831.6 999.2 840.8 987.2 847.6L782.4 965.6C780 966.8 770 972 767.6 973.2C759.6 976 750.8 978.8 742 979.2C729.2 980 716.8 977.6 707.6 972.4L215.6 689.2C205.6 683.6 200.8 675.2 200.8 666C201.2 656.8 208 647.2 219.6 640.4Z" fill="black"/>
<path opacity="0.6364" d="M221.2 641.2L429.6 520.8C432 519.6 438.4 516.4 440.8 515.2C455.2 509.6 472 510.8 485.6 512.8C490.4 513.6 514 524.8 517.6 526.8L990.8 799.2C1000 804.4 1004.8 812.4 1004.4 821.2C1004 830.4 997.6 839.2 986.4 845.6L782.8 963.2C781.2 964.4 770 970 768 970.8C760 974 751.6 976.4 742.8 977.2C730 978 717.6 976 708.8 970.8L216.8 687.6C207.6 682.4 202.8 674.4 203.2 665.6C203.6 656.4 210 647.6 221.2 641.2Z" fill="black"/>
<path opacity="0.7273" d="M222.4 642L432 521.2C434.8 519.6 440.4 516.8 443.6 516C458.4 510.4 476 510 488.8 514.8C492.4 514.8 517.6 528 520 529.6L990.4 800.4C999.2 805.6 1003.6 812.8 1003.2 820.8C1002.8 829.2 996.8 837.2 986.4 843.2L784 960C782.8 960.8 771.2 967.2 769.6 967.6C762 970.8 753.2 973.6 744.4 974.4C732 975.6 719.6 973.2 710.4 968.4L218.4 685.2C209.6 680 205.2 672.8 205.6 664.8C206 656.4 212 648 222.4 642Z" fill="black"/>
<path opacity="0.8182" d="M224 642.8L434.4 521.2C437.2 519.6 442.4 517.2 446 516C461.2 510.8 478.8 510.8 491.2 516.4C493.6 516.4 520.4 530.8 522 532L989.6 801.2C998 806 1002 812.8 1001.2 820C1000.8 827.6 995.2 835.2 985.2 840.8L784.4 956.8C783.6 957.2 771.2 964.4 770 964.8C762.4 968 754 970.8 745.2 972C732.8 973.2 720.4 971.2 711.6 966L220 682.8C211.6 678 207.6 671.2 208.4 664C208.8 656 214 648.4 224 642.8Z" fill="black"/>
<path opacity="0.9091" d="M225.6 643.6L436.8 521.6C440 519.6 444.8 517.6 448.4 516.4C463.6 511.2 482 511.6 494 518C495.2 518 523.6 534 524.4 534.4L989.6 802C997.6 806.4 1001.2 812.8 1000.4 819.6C999.6 826.4 994.8 833.2 985.6 838.8L786 954C785.6 954.4 772.4 961.6 772 962C764.4 965.2 756 968.4 747.6 969.2C735.2 970.4 722.8 968.8 714 963.6L222 680.4C214 676 210.4 669.6 211.2 662.8C211.2 656 216.4 649.2 225.6 643.6Z" fill="black"/>
<path opacity="0.2" d="M715.2 961.2L223.2 678C208.4 669.6 210.4 654.4 227.2 644.8L439.6 522.4C456.8 512.4 482.4 511.6 497.2 520L989.2 803.2C1004 811.6 1002 826.8 985.2 836.4L772.8 958.8C755.6 968.4 729.6 969.6 715.2 961.2Z" fill="black"/>
</g>
<path d="M784.8 964.8L983.2 850.4C1005.6 837.6 1002.8 814.8 976.8 800L510 530.4C484 515.6 445.2 514 422.8 526.8L224.4 641.2C202 654 204.8 676.8 230.8 691.6L697.6 961.2C723.2 976 762.4 977.6 784.8 964.8Z" fill="url(#paint0_linear)"/>
<path d="M784.8 961.2L983.2 846.8C993.2 841.2 998 833.2 998.4 825.2C998.4 824.4 998.4 808.8 998.4 808.4C997.6 799.2 990.4 804 977.2 796.4L510.4 526.8C484.4 512 445.6 510.4 423.2 523.2L224.8 637.6C214.8 643.2 210 633.2 209.6 641.2C209.6 642 209.6 660.4 209.6 661.2C210.4 670.4 217.6 680.4 230.8 688L697.6 957.6C723.2 972.8 762.4 974.4 784.8 961.2Z" fill="url(#paint1_linear)"/>
<path d="M784.8 944.4L983.2 830C1005.6 817.2 1002.8 794.4 976.8 779.6L510 510C484 495.2 445.2 493.6 422.8 506.4L224.4 620.8C202 633.6 204.8 656.4 230.8 671.2L697.6 940.8C723.2 955.6 762.4 957.2 784.8 944.4Z" fill="url(#paint2_linear)"/>
<path opacity="0.2" d="M209.2 667.6C209.2 666.4 209.2 665.6 209.6 665.2C207.6 676 214.8 688 230.8 697.2L697.6 966.8C723.6 981.6 762.4 983.2 784.8 970.4L983.2 856C992.8 850.4 998 843.2 998.4 835.2C998.4 838.4 998.4 850.8 998.4 851.2C998.4 859.2 993.2 866.8 983.2 872.8L784.8 987.2C762.4 1000 723.2 998.4 697.6 983.6L230.8 714.4C217.6 706.8 210.4 697.2 209.6 687.6C209.2 686.8 209.2 668 209.2 667.6Z" fill="url(#paint3_linear)"/>
<path d="M971.6 782.8L504.4 513.2C481.6 500 447.6 498.8 428 510L230.4 624C210.8 635.2 213.2 655.2 236 668.4L703.2 938C726 951.2 760 952.4 779.6 941.2L977.2 827.2C996.8 815.6 994.4 795.6 971.6 782.8Z" fill="url(#paint4_linear)"/>
<path d="M962.8 786.4L498 518C479.2 507.2 450.4 506 434 515.2L240.8 626.8C224.4 636.4 226.4 652.8 245.6 664L710.4 932.4C729.2 943.2 758 944.4 774.4 935.2L967.6 823.6C983.6 814 981.6 797.6 962.8 786.4Z" fill="#1F0D3D"/>
<path d="M269.6 614.8C279.2 620.4 294.8 620.4 304.4 614.8L412.4 552.4C422 546.8 422 538 412.4 532.4L435.2 519.2C450.8 510.4 475.6 510.4 491.2 519.2L961.2 790.4C976.4 799.2 976.4 813.6 961.2 822.8L772.4 931.6C756.8 940.4 732 940.4 716.4 931.6L246.4 660.4C231.2 651.6 231.2 637.2 246.4 628L269.6 614.8Z" fill="#3D065F"/>
<path d="M744.4 934.4C734.4 934.4 725.2 932.4 718.4 928.4L248.4 656.8C242.4 653.2 238.8 648.8 238.8 644C238.8 639.2 242.4 634.8 248.4 631.2L269.6 619.2C274.4 621.6 280.4 622.8 286.8 622.8C294 622.8 300.8 621.2 306 618L414 555.6C420 552 423.2 547.6 423.2 542.4C423.2 538.8 421.6 535.6 419.2 532.8L437.2 522.4C444 518.4 453.6 516 463.2 516C473.2 516 482.4 518 489.2 522L959.2 793.2C965.2 796.8 968.8 801.2 968.8 806C968.8 810.8 965.2 815.2 959.2 818.8L770.4 927.6C763.6 932.4 754 934.4 744.4 934.4Z" fill="url(#paint5_linear)"/>
<path d="M546 853.6L230.8 670.8C217.6 663.2 210.4 653.6 209.6 644C209.6 643.6 209.6 640 209.6 635.6C209.6 635.6 209.6 655.2 209.6 655.6C210.4 664.8 217.6 674.8 230.8 682.4L546 853.6Z" fill="#3D065F"/>
<path d="M902 892L866.4 912.4C866.4 906 870.4 898.4 875.2 895.6L893.2 885.2C898 882.8 902 885.6 902 892Z" fill="black"/>
<path opacity="0.2" d="M376 660.8C376 680.8 386.8 699.6 404.4 709.6L592 816.4C599.6 820.8 607.6 822.8 616 822.8C624.4 822.8 632.8 820.8 640 816.4L744 756.8C750.8 752.8 755.2 745.6 755.2 738C755.2 730 751.2 722.8 744.4 718.8L560.4 612.8C546.4 604.8 537.6 589.6 537.6 573.6V572.4C537.6 556 526.8 552 526.8 572.4V573.6C526.8 593.6 537.6 612.4 554.8 622.4L556.8 623.6L417.2 704.4L410 700.4C396 692.4 387.2 677.2 387.2 660.8C386.4 644.4 376 640.8 376 660.8ZM537.6 663.6L552 672L507.2 698L492.8 689.6L537.6 663.6ZM487.6 686L473.2 677.6L518 651.6L532.4 660L487.6 686ZM585.6 743.6L571.2 735.2L616 709.2L630.4 717.6L585.6 743.6ZM635.6 720.8L650 729.2L605.2 755.2L590.8 746.8L635.6 720.8ZM566 732L551.6 723.6L596.4 697.6L610.8 706L566 732ZM546.4 720.8L532 712.4L576.8 686.4L591.2 694.8L546.4 720.8ZM526.8 709.2L512.4 700.8L557.2 674.8L571.6 683.2L526.8 709.2ZM542.8 660.4L581.6 638L596 646.4L557.2 668.8L542.8 660.4ZM601.2 649.2L615.6 657.6L576.8 680L562.4 671.6L601.2 649.2ZM621.2 660.8L635.6 669.2L596.4 692L582 683.6L621.2 660.8ZM640.8 672L655.2 680.4L616 703.2L601.6 694.8L640.8 672ZM660.8 683.6L675.2 692L635.6 714.8L621.2 706.4L660.8 683.6ZM680.4 694.8L694.8 703.2L655.2 726L640.8 717.6L680.4 694.8ZM700.4 706.4L714.8 714.8L674.8 738L660.4 729.6L700.4 706.4ZM669.2 740.8L624.4 766.8L610 758.4L654.8 732.4L669.2 740.8ZM619.2 769.6L575.6 794.8L561.2 786.4L604.8 761.2L619.2 769.6ZM556 783.6L541.6 775.2L585.6 749.6L600 758L556 783.6ZM536 772.4L521.6 764L566 738.4L580.4 746.8L536 772.4ZM516 760.8L501.6 752.4L546 726.8L560.4 735.2L516 760.8ZM496.4 749.6L482 741.2L526.8 715.2L541.2 723.6L496.4 749.6ZM476.4 738.4L462 730L507.2 704L521.6 712.4L476.4 738.4ZM456.4 726.8L442 718.4L487.2 692L501.6 700.4L456.4 726.8ZM436.8 715.6L422.4 707.2L468 680.8L482.4 689.2L436.8 715.6ZM561.6 626.8L576 635.2L537.6 657.6L523.2 649.2L561.6 626.8ZM581.2 798L720.4 717.6L738.8 728C742.4 730 744.4 733.6 744.4 737.6C744.4 741.6 742.4 745.2 738.8 747.2L634.8 806.8C623.2 813.6 608.8 813.6 597.2 806.8L581.2 798Z" fill="#C7BCD6"/>
<g opacity="0.2">
<path opacity="0.2" d="M553.2 813.6C553.2 808.8 548.8 808.8 551.6 807.2L560.8 802C563.6 800.4 567.6 800.8 571.6 803.2C580.4 808.4 587.2 820.4 587.2 830.4C587.2 832 580.8 833.2 578 834.8L553.2 813.6Z" fill="url(#paint6_linear)"/>
<path opacity="0.2" d="M546.8 817.2C546.8 807.2 554 803.2 562.4 808.4C571.2 813.6 578 825.6 578 835.6L546.8 817.2Z" fill="url(#paint7_linear)"/>
<path opacity="0.2" d="M555.2 822C555.2 817.2 558.4 815.6 562.4 818C566.4 820.4 569.6 826 569.6 830.8L555.2 822Z" fill="url(#paint8_linear)"/>
<path opacity="0.2" d="M578.8 834.8C578.8 824.8 571.6 812.8 563.2 807.6C559.2 805.2 555.2 804.8 552.4 806.4C555.2 805.6 558.4 806.4 561.6 808.4C570.4 813.6 577.2 825.6 577.2 835.6L578.8 834.8Z" fill="url(#paint9_radial)"/>
</g>
<g opacity="0.2">
<path opacity="0.2" d="M394.8 718.4C394.8 713.6 390.4 713.6 393.2 712L402.4 706.8C405.2 705.2 409.2 705.6 413.2 708C422 713.2 428.8 725.2 428.8 735.2C428.8 736.8 422.4 738 419.6 739.6L394.8 718.4Z" fill="url(#paint10_linear)"/>
<path opacity="0.2" d="M388.4 722C388.4 712 395.6 708 404 713.2C412.8 718.4 419.6 730.4 419.6 740.4L388.4 722Z" fill="url(#paint11_linear)"/>
<path opacity="0.2" d="M396.8 726.8C396.8 722 400 720.4 404 722.8C408 725.2 411.2 730.8 411.2 735.6L396.8 726.8Z" fill="url(#paint12_linear)"/>
<path opacity="0.2" d="M420.4 739.6C420.4 729.6 413.2 717.6 404.8 712.4C400.8 710 396.8 709.6 394 711.2C396.8 710.4 400 711.2 403.2 713.2C412 718.4 418.8 730.4 418.8 740.4L420.4 739.6Z" fill="url(#paint13_radial)"/>
</g>
<g opacity="0.2">
<path opacity="0.2" d="M707.6 726C707.6 721.2 703.2 721.2 706 719.6L715.2 714.4C718 712.8 722 713.2 726 715.6C734.8 720.8 741.6 732.8 741.6 742.8C741.6 744.4 735.2 745.6 732.4 747.2L707.6 726Z" fill="url(#paint14_linear)"/>
<path opacity="0.2" d="M701.2 729.6C701.2 719.6 708.4 715.6 716.8 720.8C725.6 726 732.4 738 732.4 748L701.2 729.6Z" fill="url(#paint15_linear)"/>
<path opacity="0.2" d="M709.6 734.4C709.6 729.6 712.8 728 716.8 730.4C720.8 732.8 724 738.4 724 743.2L709.6 734.4Z" fill="url(#paint16_linear)"/>
<path opacity="0.2" d="M733.6 747.2C733.6 737.2 726.4 725.2 718 720C714 717.6 710 717.2 707.2 718.8C710 718 713.2 718.8 716.4 720.8C725.2 726 732 738 732 748L733.6 747.2Z" fill="url(#paint17_radial)"/>
</g>
<g opacity="0.2">
<path opacity="0.0909091" d="M476 574C482.8 573.6 489.2 575.2 494 577.6C494.4 577.6 508.8 586 508.8 586L715.2 711.2C722 715.2 725.2 721.2 724.8 727.6C724.8 729.6 724.4 731.2 723.6 733.2C722 738 717.2 742.8 711.6 746L602.8 808.8C601.6 809.6 599.6 810.4 598 811.2C592.8 813.2 586.8 814.4 580.8 814.8C574 814.8 567.6 813.2 562.8 810.4L342.4 677.2C335.6 673.2 332.4 667.2 332.4 660.8C332.4 658 333.2 655.6 334.8 652.8C336.8 649.2 340.8 645.2 345.6 642.4L453.6 580C460 576.8 468.4 574.4 476 574Z" fill="black"/>
<path opacity="0.1818" d="M478.8 577.6C485.2 576.8 491.6 578 496.8 580.4C497.6 580.4 511.2 588 511.6 588.4L715.2 711.6C722 715.6 724.8 721.6 724 728C723.6 729.6 723.2 731.6 722.4 733.2C720.8 737.2 715.2 742.8 710.4 745.6L603.2 807.6C602 808.4 600 809.2 598.8 810C593.6 812 587.6 813.6 582 813.6C575.2 813.6 568.8 812.4 564 809.6L348 678.8C341.6 675.2 338.4 669.2 338.8 662.8C339.2 660.4 340 657.6 341.2 655.2C343.2 652 347.6 647.6 352 645.2L458 584C462.8 581.2 472.4 578.4 478.8 577.6Z" fill="black"/>
<path opacity="0.2727" d="M481.6 581.6C488 580.4 494 581.6 499.2 583.6C500.8 583.6 513.2 590.4 514 591.2L714.8 712.4C721.6 716.4 724 722.4 722.8 728.4C722.4 730 721.6 731.6 721.2 733.2C719.6 736.8 713.2 742.4 709.2 745.2L603.2 806.4C602 807.2 600 808 598.8 808.8C593.6 810.8 588 812.4 582 812.4C575.2 812.4 569.2 811.2 564.4 808.4L352.4 680.4C346 676.8 343.2 670.8 344 664.4C344.4 662 345.6 659.6 346.8 657.2C348.4 654.4 353.6 650 357.2 647.6L460.8 588C466 585.2 476 582.4 481.6 581.6Z" fill="black"/>
<path opacity="0.3636" d="M484.8 585.2C490.8 584 496.8 584.8 502 586.4C504 586.4 515.6 592.4 516.8 593.2L714.8 712.4C721.2 716 724 722 722 728.4C721.6 730 720.8 731.6 720 733.2C718.4 736.4 711.6 742.4 707.6 744.4L603.2 804.4C602.4 804.8 600 806.4 598.8 806.8C594 808.8 588 810.4 582.4 810.4C576 810.4 569.6 809.2 565.2 806.4L357.6 681.2C351.2 677.6 348.4 671.6 350 665.6C350.4 663.2 351.6 661.2 353.2 658.8C354.8 656.4 360.4 651.6 363.6 649.6L464.8 591.2C468.8 589.6 479.6 586.4 484.8 585.2Z" fill="black"/>
<path opacity="0.4545" d="M487.6 588.8C493.2 587.2 499.6 588 504.8 589.2C507.2 589.2 518 594.4 519.6 595.6L714.8 713.2C721.2 716.8 723.6 722.8 721.2 728.8C720.8 730.4 719.6 731.6 718.8 733.2C717.6 736 709.6 742 706.4 744L604 803.2C603.2 803.6 600.4 805.2 599.6 805.6C594.8 807.6 589.2 809.2 583.6 809.2C577.2 809.2 571.2 808 566.4 805.6L362.8 683.2C356.4 679.6 354 674 355.6 668C356.4 665.6 357.6 664 358.8 661.6C360.4 659.6 366.4 654.4 369.2 653.2L468 596C472 594 483.6 590 487.6 588.8Z" fill="black"/>
<path opacity="0.5455" d="M490.4 592.4C496 590.4 502 590.8 507.2 592C510 592 520 596.4 522 597.6L714.4 713.2C720.8 716.8 722.8 722.8 720 728.8C719.2 730.4 718.4 731.6 717.6 732.8C716.8 735.2 707.6 741.6 705.2 743.2L604 802C603.2 802.4 600.4 804 599.6 804.4C594.8 806.4 589.2 808 583.6 808C577.2 808.4 571.2 807.2 566.8 804.4L367.6 684.8C361.2 681.2 359.2 675.6 361.2 670C362 668 363.2 666 364.8 664C366 662.4 372.8 657.2 375.2 656L472 600C474.8 598.4 487.2 593.6 490.4 592.4Z" fill="black"/>
<path opacity="0.6364" d="M493.6 596C498.8 593.6 504.8 594 510 594.8C513.6 594.8 522.4 598.4 524.8 600L714.4 713.6C720.8 717.2 722.4 723.2 719.2 728.8C718.4 730 717.6 731.6 716.4 732.8C715.6 734.8 706 741.2 703.6 742.4L604 800.4C603.6 800.8 600.4 802.4 600 802.8C595.2 804.8 590 806.4 584.4 806.8C578 807.2 572.4 806 567.6 803.2L372.4 686C366.4 682.4 364.4 676.8 366.8 671.6C367.6 669.6 368.8 667.6 370.8 666C371.6 664.4 379.2 659.2 381.2 658.4L475.2 604C478 602.4 490.8 597.2 493.6 596Z" fill="black"/>
<path opacity="0.7273" d="M496.4 599.6C501.2 596.8 507.2 597.2 512.8 597.6C516.8 597.6 524.8 600.8 527.6 602.4L714.4 714.4C720.8 718 722 724 718.4 729.6C717.6 730.8 716.4 732 715.2 733.2C714.8 734.8 704 741.6 702.4 742.4L604.4 798.8C604 799.2 600.8 800.8 600.4 801.2C596 803.2 590.4 804.8 585.2 805.2C579.2 805.6 573.2 804.4 568.8 802L378 687.6C372 684 370.4 678.8 372.8 673.6C373.6 671.6 375.2 670 377.2 668.4C377.6 667.2 386 662 387.6 661.2L479.6 608C480.8 606.8 494.4 600.8 496.4 599.6Z" fill="black"/>
<path opacity="0.8182" d="M499.2 603.6C504 601.6 510 600.8 515.2 600.8C519.6 600.8 526.8 603.2 529.6 604.8L713.6 714.8C720 718.4 720.8 724.4 716.8 729.6C716 730.8 714.8 732 713.2 733.2C712.8 734 701.2 741.2 700.4 742L604 797.6C603.6 797.6 600.4 799.6 600 800C595.6 802 590.4 803.6 585.2 804C579.2 804.4 573.2 803.2 569.2 800.8L382.4 689.2C376.4 685.6 375.2 680.4 378 675.2C379.2 673.6 380.4 672 382.4 670.4C382.8 669.6 391.6 664 392.8 663.6L482.4 612C483.6 611.2 498 603.6 499.2 603.6Z" fill="black"/>
<path opacity="0.9091" d="M502.4 607.2C507.2 604.8 512.8 603.6 518 603.6C522.8 603.6 529.2 605.2 532.4 607.2L713.6 715.2C720 718.8 720.8 724.8 716.4 730C715.6 731.2 714 732 712.8 733.2C712.8 733.6 700.4 741.2 699.6 741.2L604.8 796C604.8 796 600.8 798 600.8 798.4C596.4 800.4 591.2 802 586 802.4C580 802.8 574.4 801.6 570 799.2L387.6 690.4C381.6 686.8 380.8 681.6 384 676.8C385.2 675.2 386.8 673.6 388.8 672.4C388.8 672 398.4 666.4 399.2 666L486.4 615.6C486.8 615.2 501.6 607.2 502.4 607.2Z" fill="black"/>
<path opacity="0.2" d="M570.8 798L392.4 692C384.8 687.6 385.6 680 394.4 674.8L504.8 611.2C513.6 606 527.2 605.6 534.8 610L713.2 716.4C720.8 720.8 720 728.4 711.2 733.6L600.8 797.2C592 802 578.4 802.4 570.8 798Z" fill="black"/>
</g>
<path d="M488.7 312.9L340.1 398L342.7 402.5L491.3 317.4L488.7 312.9Z" fill="#C7BCD6"/>
<path d="M750.8 498.8L753.2 494L502.4 347.6L354.4 432L357.2 436.8L502.4 354L750.8 498.8Z" fill="#C7BCD6"/>
<path d="M518 304.4H512.8V380.8H518V304.4Z" fill="url(#paint18_linear)"/>
<path d="M754.4 460.8H749.2V559.2H754.4V460.8Z" fill="url(#paint19_linear)"/>
<path d="M734.4 448H729.2V547.6H734.4V448Z" fill="url(#paint20_linear)"/>
<path d="M714.8 435.2H709.6V535.6H714.8V435.2Z" fill="url(#paint21_linear)"/>
<path d="M694.8 422H689.6V523.6H694.8V422Z" fill="url(#paint22_linear)"/>
<path d="M675.2 409.2H670V511.6H675.2V409.2Z" fill="url(#paint23_linear)"/>
<path d="M655.6 396.4H650.4V500H655.6V396.4Z" fill="url(#paint24_linear)"/>
<path d="M635.6 383.6H630.4V488H635.6V383.6Z" fill="url(#paint25_linear)"/>
<path d="M616 370.8H610.8V476.4H616V370.8Z" fill="url(#paint26_linear)"/>
<path d="M596 357.6H590.8V464H596V357.6Z" fill="url(#paint27_linear)"/>
<path d="M576.4 344.8H571.2V452.4H576.4V344.8Z" fill="url(#paint28_linear)"/>
<path d="M556.8 332H551.6V440.4H556.8V332Z" fill="url(#paint29_linear)"/>
<path d="M536.8 319.2H531.6V428.8H536.8V319.2Z" fill="url(#paint30_linear)"/>
<path d="M578 613.6C578 618.4 576.4 622 573.6 623.6C573.6 623.6 564.8 628.4 564.8 628.8C562 630.4 563.6 626.8 559.6 624.4C550.8 619.2 544 607.2 544 597.2C544 592.4 539.6 592.4 542.4 590.8L551.6 585.6C554.4 584 558.4 584.4 562.4 586.8C571.2 591.2 578 603.6 578 613.6Z" fill="url(#paint31_linear)"/>
<path d="M569.2 618.4C569.2 628.4 562 632.4 553.6 627.2C544.8 622 538 610 538 600C538 590 545.2 586 553.6 591.2C562 596.4 569.2 608.8 569.2 618.4Z" fill="url(#paint32_linear)"/>
<path d="M560.8 613.6C560.8 618.4 557.6 620 553.6 617.6C549.6 615.2 546.4 609.6 546.4 604.8C546.4 600 549.6 598.4 553.6 600.8C557.2 603.6 560.8 609.2 560.8 613.6Z" fill="url(#paint33_linear)"/>
<path d="M554 591.2C550 588.8 546 588.4 543.2 590C546 589.2 549.2 590 552.4 592C561.2 597.2 568 609.2 568 619.2C568 624.4 566 628 563.2 629.6C567.2 628.4 569.6 624.8 569.6 618.8C569.6 608.4 562.8 596 554 591.2Z" fill="url(#paint34_radial)"/>
<path d="M548.8 572.8V610.4L553.2 612.8L586 594.8L548.8 572.8Z" fill="url(#paint35_linear)"/>
<path d="M737.6 706C737.6 710.8 736 714.4 733.2 716C733.2 716 724.4 720.8 724.4 721.2C721.6 722.8 723.2 719.2 719.2 716.8C710.4 711.6 703.6 699.6 703.6 689.6C703.6 684.8 699.2 684.8 702 683.2L711.2 678C714 676.4 718 676.8 722 679.2C730.4 684 737.6 696 737.6 706Z" fill="url(#paint36_linear)"/>
<path d="M728.4 711.2C728.4 721.2 721.2 725.2 712.8 720C704 714.8 697.2 702.8 697.2 692.8C697.2 682.8 704.4 678.8 712.8 684C721.2 689.2 728.4 701.2 728.4 711.2Z" fill="url(#paint37_linear)"/>
<path d="M720 706.4C720 711.2 716.8 712.8 712.8 710.4C708.8 708 705.6 702.4 705.6 697.6C705.6 692.8 708.8 691.2 712.8 693.6C716.8 696 720 701.6 720 706.4Z" fill="url(#paint38_linear)"/>
<path d="M713.6 683.6C709.6 681.2 705.6 680.8 702.8 682.4C705.6 681.6 708.8 682.4 712 684.4C720.8 689.6 727.6 701.6 727.6 711.6C727.6 716.8 725.6 720.4 722.8 722C726.8 720.8 729.2 717.2 729.2 711.2C729.2 700.8 722 688.8 713.6 683.6Z" fill="url(#paint39_radial)"/>
<path d="M708.4 665.6V702.8L712.4 705.6L745.2 687.2L708.4 665.6Z" fill="url(#paint40_linear)"/>
<path d="M519.2 606.2L516.6 610.7L672.9 702.4L675.5 697.9L519.2 606.2Z" fill="#C7BCD6"/>
<path d="M468.9 635.1L466.3 639.6L623.3 731.7L625.9 727.2L468.9 635.1Z" fill="#C7BCD6"/>
<path d="M418 669.6L568.4 582.4L565.6 578L415.2 664.8L418 669.6Z" fill="url(#paint41_linear)"/>
<path d="M437.2 681.2L588 594L585.2 589.6L434.8 676.4L437.2 681.2Z" fill="url(#paint42_linear)"/>
<path d="M456.8 692.8L607.2 605.6L604.8 601.2L454 688L456.8 692.8Z" fill="url(#paint43_linear)"/>
<path d="M476.4 704L626.8 617.2L624 612.4L473.6 699.6L476.4 704Z" fill="url(#paint44_linear)"/>
<path d="M495.6 715.6L646.4 628.8L643.6 624L493.2 711.2L495.6 715.6Z" fill="url(#paint45_linear)"/>
<path d="M515.2 727.2L665.6 640.4L663.2 635.6L512.4 722.8L515.2 727.2Z" fill="url(#paint46_linear)"/>
<path d="M534.8 738.8L685.2 652L682.4 647.2L532 734.4L534.8 738.8Z" fill="url(#paint47_linear)"/>
<path d="M554.4 750.4L704.8 663.6L702 658.8L551.6 745.6L554.4 750.4Z" fill="url(#paint48_linear)"/>
<path d="M573.6 762L724 675.2L721.6 670.4L571.2 757.2L573.6 762Z" fill="url(#paint49_linear)"/>
<path d="M511.6 437.2L516.4 435.2L467.2 290.4L462 292L511.6 437.2Z" fill="url(#paint50_linear)"/>
<path d="M494.8 446.8L499.6 444.8L450.4 300L445.2 301.6L494.8 446.8Z" fill="url(#paint51_linear)"/>
<path d="M478 456.4L482.8 454.8L433.6 309.6L428.4 311.2L478 456.4Z" fill="url(#paint52_linear)"/>
<path d="M461.2 466L466 464.4L416.8 319.2L411.6 320.8L461.2 466Z" fill="url(#paint53_linear)"/>
<path d="M444.4 475.6L449.2 474L400 328.8L394.8 330.4L444.4 475.6Z" fill="url(#paint54_linear)"/>
<path d="M427.6 485.2L432.4 483.6L383.2 338.4L378 340L427.6 485.2Z" fill="url(#paint55_linear)"/>
<path d="M410.8 494.8L415.6 493.2L366.4 348L361.2 349.6L410.8 494.8Z" fill="url(#paint56_linear)"/>
<path d="M394 504.4L398.8 502.8L349.6 357.6L344.4 359.6L394 504.4Z" fill="url(#paint57_linear)"/>
<path d="M404 366.8L408 379.2L434.8 363.6L430.4 351.6L458.8 335.6L486.4 414.4L403.6 462L376 382.8L404 366.8Z" fill="url(#paint58_linear)"/>
<path d="M587.2 793.6C587.2 798.4 585.6 802 582.8 803.6C582.8 803.6 574 808.4 574 808.8C571.2 810.4 572.8 806.8 568.8 804.4C560 799.2 553.2 787.2 553.2 777.2C553.2 772.4 548.8 772.4 551.6 770.8L560.8 765.6C563.6 764 567.6 764.4 571.6 766.8C580.4 771.6 587.2 783.6 587.2 793.6Z" fill="url(#paint59_linear)"/>
<path d="M578.4 798.8C578.4 808.8 571.2 812.8 562.8 807.6C554 802.4 547.2 790.4 547.2 780.4C547.2 770.4 554.4 766.4 562.8 771.6C571.2 776.4 578.4 788.8 578.4 798.8Z" fill="url(#paint60_linear)"/>
<path d="M570 794C570 798.8 566.8 800.4 562.8 798C558.8 795.6 555.6 790 555.6 785.2C555.6 780.4 558.8 778.8 562.8 781.2C566.8 783.6 570 789.2 570 794Z" fill="url(#paint61_linear)"/>
<path d="M563.2 771.2C559.2 768.8 555.2 768.4 552.4 770C555.2 769.2 558.4 770 561.6 772C570.4 777.2 577.2 789.2 577.2 799.2C577.2 804.4 575.2 808 572.4 809.6C576.4 808.4 578.8 804.8 578.8 798.8C578.8 788.4 572 776.4 563.2 771.2Z" fill="url(#paint62_radial)"/>
<path d="M558 753.2V790.4L562.4 792.8L595.2 774.8L558 753.2Z" fill="url(#paint63_linear)"/>
<path d="M428 700.8C428 705.6 426.4 709.2 423.6 710.8C423.6 710.8 414.8 715.6 414.8 716C412 717.6 413.6 714 409.6 711.6C400.8 706.4 394 694.4 394 684.4C394 679.6 389.6 679.6 392.4 678L401.6 672.8C404.4 671.2 408.4 671.6 412.4 674C420.8 678.8 428 690.8 428 700.8Z" fill="url(#paint64_linear)"/>
<path d="M418.8 706C418.8 716 411.6 720 403.2 714.8C394.4 709.6 387.6 697.6 387.6 687.6C387.6 677.6 394.8 673.6 403.2 678.8C412 684 418.8 696 418.8 706Z" fill="url(#paint65_linear)"/>
<path d="M410.4 701.2C410.4 706 407.2 707.6 403.2 705.2C399.2 702.8 396 697.2 396 692.4C396 687.6 399.2 686 403.2 688.4C407.2 690.8 410.4 696.4 410.4 701.2Z" fill="url(#paint66_linear)"/>
<path d="M404 678.4C400 676 396 675.6 393.2 677.2C396 676.4 399.2 677.2 402.4 679.2C411.2 684.4 418 696.4 418 706.4C418 711.6 416 715.2 413.2 716.8C417.2 715.6 419.6 712 419.6 706C419.6 695.6 412.8 683.6 404 678.4Z" fill="url(#paint67_radial)"/>
<path d="M398.8 660.4V697.6L402.8 700.4L436 682L398.8 660.4Z" fill="url(#paint68_linear)"/>
<path d="M615.6 782.4C624 782.4 632.4 780.4 639.6 776L743.6 716.4C750.4 712.4 754.8 705.2 754.8 697.6C754.8 689.6 750.8 682.4 744 678.4L560 572.4C546 564.4 537.2 549.2 537.2 533.2V532C537.2 515.6 546 500.4 560.8 492.4L600.8 470.4L595.6 461.2L555.6 483.2C537.6 493.2 526.8 512 526.8 532.4V533.6C526.8 553.6 537.6 572.4 554.8 582.4L738.8 688.4C742.4 690.4 744.4 694 744.4 698C744.4 702 742.4 705.6 738.8 707.6L634.8 767.2C623.2 774 608.8 774 597.2 767.2L409.6 660.4C395.6 652.4 386.8 637.2 386.8 620.8C386.8 604.8 395.6 589.6 409.2 581.6L450.4 557.6L444.8 548.4L403.6 572.4C386.4 582.4 375.6 601.2 375.6 620.8C375.6 640.8 386.4 659.6 404 669.6L591.6 776.4C599.2 780.4 607.2 782.4 615.6 782.4Z" fill="#C7BCD6"/>
<path d="M444.8 548.8L404.4 572.4C387.6 582.4 377.2 600.4 377.2 620C377.2 638.8 386.8 656 402.4 666.4C403.2 666.8 404.8 668 405.6 668.4L592.4 774.8C599.2 778.8 606.8 780.8 614.8 780.8C615.2 780.8 616 780.8 616.4 780.8C623.6 780.8 630.8 779.2 637.2 775.6C638 775.2 639.6 774.4 640.4 774L743.6 714.8C750 711.2 754 704.4 754 696.8C754 689.2 750 682.4 743.6 678.8L560.4 573.6C559.6 573.2 557.6 572 556.8 571.2C544.8 563.2 537.2 549.6 536.4 535.2C536.4 535.2 536.4 534.4 536.4 534C536.4 530.8 536.4 527.6 536.8 524.4C536.8 524 536.8 523.6 536.8 523.2C538.8 510.8 546 500 556.8 492.8C557.6 492 569.6 484.8 570.8 484.4L596 470.4L594.4 462L593.6 462.4H592.4L556 484C538.4 493.6 527.6 512 527.6 532V533.2C527.6 552.8 538 571.2 555.2 580.8L739.2 686.8C743.2 689.2 745.2 693.2 745.2 697.6C745.2 702 742.8 706 739.2 708.4L635.2 768C628.8 771.6 621.2 773.6 614 773.2C608.4 772.8 602.4 771.6 597.6 768.8C597.2 768.8 594 766.8 593.6 766.4L410 661.6C409.2 661.2 407.2 660 406.4 659.2C394 651.2 386.4 637.6 386 622.8C386 619.6 386 616.8 386.4 613.6C388.4 600.8 395.6 589.6 406 582.4C406.8 581.6 416.8 575.6 417.6 575.2L446.8 558L445.2 550.8L444.8 548.8Z" fill="#CDC5D9"/>
<path d="M444.8 550L405.6 572.8C389.2 582.4 378.8 600.4 378.8 619.2C378.8 638 388.4 655.2 404.4 664.8C404.8 665.2 407.2 666.4 407.6 666.8L593.6 772.8C600.4 776.8 608 778.8 615.6 778.8C616 778.8 616.8 778.8 617.2 778.8C624.4 778.8 631.6 776.8 638 773.6C638.4 773.2 640.4 772.4 640.8 772L743.2 713.2C749.2 709.6 753.2 703.2 753.2 696.4C753.2 689.2 749.6 682.8 743.2 679.2L561.2 574.4C560.4 574 558 572.4 557.6 572C545.6 564 537.6 551.2 536 536.8V536C535.6 532.8 535.6 529.6 536 526.8C536 526.8 536 526 536 525.6C537.6 513.2 544 502 553.6 494C555.6 492 564.8 486.4 567.2 484.8L592.4 470.8L594.4 463.6L593.2 463.2L556.8 483.6C539.6 493.2 529.2 511.2 529.2 530.8V532C529.2 551.2 539.6 569.2 556.4 578.8L740.4 684.8C744.8 687.2 747.2 691.6 747.2 696.4C747.2 701.2 744.8 705.6 740.4 708L636.4 767.6C630 771.2 622.8 773.2 615.2 772.8C609.6 772.8 603.6 771.2 598.4 768.8C597.6 768.4 595.2 767.2 594.4 766.8L410.8 662C410 661.6 407.6 660.4 407.2 660C394.8 652 386.8 638.8 385.2 624.4C384.8 621.2 384.8 618.4 385.2 615.2C386.4 602.4 392.8 590.8 402.8 582.8C404.4 581.2 412 576 414.4 575.2L443.6 558L445.2 551.6L444.8 550Z" fill="#D3CEDB"/>
<path d="M444.8 551.6L406.4 574C390.4 583.6 380.4 600.8 380.4 619.6C380.4 638 390.4 655.6 406 664.8C406.4 664.8 408.8 666.4 409.2 666.8L594.4 772.4C601.2 776.4 608.8 778.4 616.4 778.4C616.8 778.4 617.6 778.4 618 778.4C625.2 778 632 776.4 638.4 772.8C638.8 772.8 641.2 771.2 641.2 771.2L743.2 712.8C749.2 709.6 752.4 703.6 752.4 696.8C752.4 690 748.8 684 743.2 680.8L562 576.4C561.6 576.4 558.4 574.4 558.4 574C546 566.4 538 554 535.6 540C535.6 539.6 535.6 539.2 535.6 539.2C535.2 536 535.2 533.2 535.2 530C535.2 530 535.2 529.2 535.2 528.8C536 516.4 541.6 504.8 550.4 496.4C553.2 493.6 560 488.8 563.6 486.8L588.8 472.8L594.4 466.4L595.2 466L594.4 465.2L558 485.2C541.2 494.4 530.8 512 530.8 531.2V532.4C530.8 551.2 540.8 568.8 557.2 578L741.2 684C745.6 686.8 748.4 691.2 748.4 696.8C748.4 702 745.6 706.8 741.2 709.6L637.2 769.2C630.8 772.8 623.6 774.8 616 774.8C610 774.8 604.4 773.6 599.2 770.8C598 770.4 596 769.2 595.2 768.8L411.6 664C411.2 664 408.4 662 408 662C395.2 654.4 386.8 641.2 384.8 626.8C384.4 624 384.4 620.8 384.4 617.6C385.2 604.8 390.8 592.8 400 584C402.4 581.6 408 577.6 411.2 575.6L440.4 558.4L445.2 552.8L444.8 551.6Z" fill="#D9D7DE"/>
<path d="M617.2 776.4C624.8 776.4 632.4 774.4 639.2 770.8L743.2 711.2C748.8 708 752 702.4 752 696C752 689.6 748.8 684 743.2 680.8L559.2 574.8C543.6 566 534 549.2 534 531.6V530.4C534 512.4 544 495.6 559.6 486.8L595.6 466.8L594.8 465.2L558.8 485.2C542.4 494.4 532 511.6 532 530.4V531.6C532 550 542 567.2 558 576.4L742 682.4C746.8 685.2 750 690.4 750 696C750 701.6 747.2 706.8 742 709.6L638 769.2C631.6 772.8 624.4 774.8 616.8 774.8C609.6 774.8 602 772.8 595.6 769.2L408 662.4C392.4 653.6 382.8 636.8 382.8 618.8C382.8 601.2 392.4 584.4 407.6 575.6L444.8 553.6L444 552.4L406.8 574.4C391.2 583.6 381.2 600.8 381.2 618.8C381.2 637.2 391.2 654.4 407.2 663.6L594.8 770.4C602 774.4 609.2 776.4 617.2 776.4Z" fill="#DFE0E0"/>
<path d="M594.9 461.2L444.8 547.6L450.2 557L600.3 470.6L594.9 461.2Z" fill="#C7BCD6"/>
<path d="M530.1 424.2L379.8 511L382.4 515.5L532.7 428.6L530.1 424.2Z" fill="#C7BCD6"/>
<path d="M549.9 435.6L399.6 522.5L402.2 527L552.5 440.1L549.9 435.6Z" fill="#C7BCD6"/>
<path d="M569.1 447L418.8 533.9L421.4 538.4L571.7 451.5L569.1 447Z" fill="#C7BCD6"/>
<path d="M588.6 458.1L438.3 545L440.9 549.5L591.2 462.6L588.6 458.1Z" fill="#C7BCD6"/>
<path d="M608.2 469.3L457.9 556.2L460.5 560.7L610.8 473.8L608.2 469.3Z" fill="#C7BCD6"/>
<path d="M627.4 480.6L477.1 567.5L479.7 572L630 485.1L627.4 480.6Z" fill="#C7BCD6"/>
<path d="M647.1 492.1L496.8 579L499.4 583.5L649.7 496.6L647.1 492.1Z" fill="#C7BCD6"/>
<path d="M666.7 503.2L516.4 590.1L519 594.6L669.3 507.7L666.7 503.2Z" fill="#C7BCD6"/>
<path d="M685.9 514.6L535.6 601.5L538.2 606L688.5 519.1L685.9 514.6Z" fill="#C7BCD6"/>
<path d="M705.4 525.7L555.1 612.6L557.7 617.1L708 530.2L705.4 525.7Z" fill="#C7BCD6"/>
<path d="M724.9 536.9L574.6 623.8L577.2 628.3L727.5 541.4L724.9 536.9Z" fill="#C7BCD6"/>
<path d="M744.1 548.2L593.8 635.1L596.4 639.6L746.7 552.7L744.1 548.2Z" fill="#C7BCD6"/>
<path d="M637.2 640.4C638 640.4 639.2 640 640 639.6L744 580C750.8 576 755.2 568.8 755.2 561.2C755.2 553.2 751.2 546 744.4 542L536 422.8L474.4 244.8C470.4 233.6 462.8 224 452.8 218L434.4 206.8C432 205.2 428.4 206 427.2 208.4C425.6 210.8 426.4 214.4 428.8 215.6L447.2 226.8C455.2 231.6 461.2 239.2 464.4 248L527.2 429.6L738.4 551.2C742 553.2 744 556.8 744 560.8C744 564.8 742 568.4 738.4 570.4L634.4 630C632 631.6 630.8 634.8 632.4 637.2C633.6 639.6 635.2 640.4 637.2 640.4Z" fill="#C7BCD6"/>
<path d="M428.4 208.8C428 209.2 428 209.6 428 210C427.6 211.6 429.6 214.4 431.2 215.6L443.6 223.2C444 223.6 448.8 226.4 449.2 226.8C456 231.6 461.6 238 464.8 246C465.2 246.8 465.6 248 465.6 248.4L528.4 429.2L739.2 550.4C742.8 552.4 744.8 556 745.2 559.6C745.2 561.2 745.2 563.2 744.4 564.8C743.6 566.8 742.4 568.4 740.8 569.6C740.4 570.4 733.2 574.8 732.4 575.2L638 629.2C636 630.4 633.6 633.6 634.8 635.6C635.6 636.8 635.6 638.4 637.2 638.4H637.6H638C638.4 638.4 638.8 638.4 638.8 638.4H639.2L743.2 578.8C749.6 575.2 753.6 568.4 753.6 560.8C753.6 553.2 749.6 546.4 743.2 542.8L536.4 424L534 420L474 247.2C473.2 244.8 471.6 240.8 470.4 238.8C466.4 231.2 460.8 224.4 453.6 219.6C453.2 219.2 448.4 216.4 448 216L435.6 208.4C434 207.6 430.4 206.8 429.2 208C429.2 208 428.8 208 428.8 208.4C428.8 208.4 428.8 208.8 428.4 208.8Z" fill="#CDC5D9"/>
<path d="M429.6 209.2C429.2 209.6 429.2 210 429.6 210.4C429.2 211.6 432.8 214.8 433.6 215.2L446 222.8C446.8 223.2 450.4 225.6 451.6 226.4C458.4 231.2 463.6 238 466.8 245.6C466.8 246 467.6 247.6 467.6 248L530 427.6L740.4 548.8C744 550.8 746 554 746.8 558C747.2 559.6 746.8 561.6 746.4 563.2C746 565.2 744.8 566.8 743.6 568.4C742.8 570 737.2 574 735.6 574.8L642 628.4C640.8 629.2 636.8 632.8 637.2 634C637.6 634.8 636.4 636.8 637.2 636.8C637.2 636.8 637.2 636.8 637.2 637.2C637.2 637.2 637.2 637.2 637.6 637.6C638 637.6 638 637.6 638.4 637.6H638.8L742.8 578C748.8 574.4 752.8 568 752.8 561.2C752.8 554 749.2 547.6 742.8 544L536.4 425.2L533.6 421.6L474 249.6C473.6 248 471.2 242.4 470.4 241.2C466.8 233.2 461.2 226.8 454.4 221.6C453.6 220.8 449.6 218.4 448.8 218L436.4 210.4C435.2 209.6 431.2 208 430 208.8H429.6C430.4 208.8 430 208.8 429.6 209.2Z" fill="#D3CEDB"/>
<path d="M431.2 209.6C430.8 210 431.2 210.4 431.2 210.8C431.2 211.2 435.6 214.8 436.4 215.2L448.8 222.8C450 223.6 452.8 225.6 454 226.4C460.4 231.6 465.6 238.4 468.4 246C468.4 246.4 469.2 248 469.2 248.4L531.2 427.2L741.2 548C744.8 550 746.8 553.2 748 556.8C748.4 558.4 748.4 560 748.4 562C748 564 747.6 566 746.4 567.6C745.6 570 741.6 573.2 739.2 574.4L646.4 627.6C645.6 628 640 632 640.4 632.4C640.8 632.8 637.6 635.2 638 635.2V635.6C638 635.6 638 636 638.4 636C638.8 636.4 638.8 636.4 639.2 636.4H639.6L743.6 576.8C749.6 573.6 752.8 567.6 752.8 560.8C752.8 554 749.2 548 743.6 544.8L538 426.4L534.4 423.6L474.8 252C474.4 251.2 472 244 471.6 243.2C468.4 235.2 463.2 228.4 456.4 223.2C455.2 222 452.4 220.4 450.8 219.6L438.4 212C438 211.6 432.8 209.2 432.4 209.6H432C431.6 208.8 431.2 209.2 431.2 209.6Z" fill="#D9D7DE"/>
<path d="M638.4 634.4C638.8 634.4 638.8 634.4 638.4 634.4L742.8 574.8C748.4 571.6 751.6 566 751.6 559.6C751.6 553.2 748.4 547.6 742.8 544.4L533.6 424L471.2 244.4C467.6 234 460.8 225.6 451.6 220L433.2 208.8H432.8C432.8 208.8 432.4 208.8 432 209.2C431.6 209.6 432 210 432.4 210.4L450.8 221.6C459.6 227.2 466.4 235.6 470 245.2L532.4 425.2L742 546C746.8 548.8 750 554 750 559.6C750 565.2 747.2 570.4 742 573.2L638 632.8C637.6 632.8 637.6 633.2 637.6 633.2C637.6 633.2 637.6 633.6 637.6 634C638 634.4 638.4 634.4 638.4 634.4Z" fill="#DFE0E0"/>
<path d="M744.8 481.2C751.2 477.6 754.8 471.2 755.2 463.6C755.2 456.4 752 449.6 745.6 445.6L613.2 360L480.8 274.4L330.8 362C328.4 363.6 326.8 366 326.8 368.8C326.8 371.6 328 374.4 330.4 375.6L336.4 366.4C337.2 366.8 337.6 367.6 337.6 368.8C337.6 369.6 337.2 370.4 336.4 371.2L480.8 287.2L610.4 371.2L740 455.2C742.8 457.2 744.8 460.4 744.4 464C744.4 467.6 742.4 470.8 739.6 472.4L744.8 481.2Z" fill="#C7BCD6"/>
<path d="M480.8 276.4L456.8 330.4L433.2 383.6C432.8 383.6 433.2 384.4 432.8 384.4C432.4 386 432 388.4 432.4 391.2C432.4 392 432.4 392.4 432.4 393.2C432.8 395.6 433.2 397.6 433.6 399.2C433.6 399.2 434 400 434.4 400C435.2 399.2 440 391.6 440 390.4C440.4 390.4 440.8 390.8 440.8 391.6C440.8 392 440.4 392.4 439.6 392.8C439.2 392 446 386.8 445.2 386.4L514.4 307.2L516.8 308.8L580 349.6L585.6 353.2L645.2 427.6C647.6 429.2 646.4 432.8 646.4 435.2C646.4 438 642.8 441.2 640.4 442.8L642 450L642.8 451.2C647.6 448.4 652.4 442.4 652.8 436.8C652.8 431.2 652.4 425.2 647.6 422L563.6 348.8L480.8 276.4Z" fill="#CDC5D9"/>
<path d="M480.8 277.6L508.4 342L535.6 405.2C535.2 405.2 536.4 406 536 406.4C536.8 408.4 537.6 411.2 538 414.4C538 415.2 538 416 538 416.4C538 419.2 538 421.6 537.6 423.6C537.6 423.6 538.4 424.4 538.4 424.8C539.6 423.2 543.6 416.8 543.6 414.8C544 414.8 544.4 414.4 544 414.8C544 414.8 543.6 414.8 543.2 414.8C542.8 413.2 546.4 408.4 544.8 407.6L548.8 327.6L550.8 328.8L551.2 401.2C552.8 402 549.2 406.4 549.2 408C549.2 409.6 544 413.6 542.4 414.8L540.8 420.8C541.2 420.8 541.6 421.6 541.6 422C544.8 420 550.8 414.4 550.8 410.8C550.8 407.2 553.2 401.6 550 399.6L516 338.8L480.8 277.6Z" fill="#D3CEDB"/>
<path d="M480.8 279.2L560 353.6L638 426.8C638 426.8 639.6 428 639.2 428C641.2 430 642.8 433.2 643.2 436.8C643.2 437.6 643.2 438.4 643.2 439.2C643.2 442.4 642.4 445.2 641.2 447.2L642 448.4C644 446.4 646.8 441.2 646.8 438C647.2 437.6 647.2 437.2 646.8 436.4C646.8 436 646.4 435.6 646 435.2C645.2 432.4 646 428.8 643.6 427.2L582.4 346.4L580 344.8L520.8 306.4L515.6 302.8L456.8 373.2C457.6 373.6 451.6 378 451.6 379.2C451.6 380 444.8 384.4 444 384.8L439.6 390H440C440.4 390 440.8 390.8 441.2 391.2C442.8 390.4 450 385.2 450 383.2C450 381.2 455.2 376 453.6 375.2L467.2 326.8L480.8 279.2Z" fill="#D9D7DE"/>
<path d="M746.4 473.2C749.2 470.4 750.8 466.4 750.8 462.4C750.8 456.8 748 451.6 743.6 448.4L612 363.6L480.8 278.8L338.4 361.6H338.8C339.2 362 339.6 362 340 362.4L480.8 280.4L611.6 364.8L742.4 449.2C746.8 452 749.2 456.8 749.2 461.6C749.2 465.2 747.6 468.4 745.6 470.8L746.4 473.2Z" fill="#DFE0E0"/>
<path d="M364 388H358.8V464.4H364V388Z" fill="url(#paint69_linear)"/>
<path d="M485.8 410.9L400.1 460L402.7 464.5L488.5 415.4L485.8 410.9Z" fill="#C7BCD6"/>
<path d="M443.6 218C443.6 220.4 442.8 222 441.6 222.8L285.2 310C284 310.8 284.8 309.2 282.8 308C278.4 305.6 275.2 299.6 275.2 294.8C275.2 292.4 272.8 292.4 274.4 291.6C274.4 291.6 431.2 204.4 431.2 204C432.4 203.2 434.4 203.2 436.4 204.4C440 207.6 443.6 213.2 443.6 218Z" fill="url(#paint70_linear)"/>
<path d="M286.8 305.6C286.8 310.4 283.2 312.4 279.2 310C274.8 307.6 271.6 301.6 271.6 296.8C271.6 292 275.2 290 279.2 292.4C283.6 294.8 286.8 300.8 286.8 305.6Z" fill="url(#paint71_linear)"/>
<path d="M279.6 292.4C277.6 291.2 275.6 291.2 274.4 291.6C275.6 291.2 277.2 291.6 278.8 292.4C283.2 294.8 286.4 300.8 286.4 305.6C286.4 308 285.6 310 284 310.4C286 310 287.2 308 287.2 305.2C287.2 300.8 284 294.8 279.6 292.4Z" fill="url(#paint72_radial)"/>
<path d="M298.8 316C300.8 316 302.4 315.2 303.6 313.2C305.2 310.8 304 307.2 301.6 306L282 294.8C279.6 293.2 276 294.4 274.8 296.8C273.2 299.2 274.4 302.8 276.8 304L296.4 315.2C297.2 315.6 298 316 298.8 316Z" fill="#C7BCD6"/>
<path d="M594.4 258.4L577.6 253.2L574.4 244.4L558 454.8L596 422.8L594.4 258.4Z" fill="url(#paint73_linear)"/>
<path d="M438.4 530L568.8 460.4L574.8 244.4L446.8 318.4L438.4 530Z" fill="url(#paint74_linear)"/>
<path d="M472 494.8L471.6 553.2L435.6 530.4L472 494.8Z" fill="url(#paint75_linear)"/>
<path d="M466.8 332L462 322L446.8 318.4L435.6 530.4L471.6 495.6L466.8 332Z" fill="url(#paint76_linear)"/>
<path d="M471.6 553.2L599.2 479.6L594.4 258.4L466.8 332L471.6 553.2Z" fill="url(#paint77_linear)"/>
<path d="M553.2 303.2C553.2 306 555.2 307.2 558 306C560.4 304.4 562.8 300.8 562.8 298C562.8 295.2 560.8 294 558 295.2C555.2 296.8 553.2 300.4 553.2 303.2Z" fill="#47156B"/>
<path d="M506.8 329.6C506.8 332.4 508.8 333.6 511.6 332.4C514 330.8 516.4 327.2 516.4 324.4C516.4 321.6 514.4 320.4 511.6 321.6C508.8 323.2 506.8 326.8 506.8 329.6Z" fill="#47156B"/>
<path d="M529.6 376C533.2 376 537.2 374.8 540.4 372.8C552.8 364.8 560 351.2 560 336.8V300.4C560 299.2 558.8 298 557.6 298C556.4 298 555.2 299.2 555.2 300.4V336.8C555.2 350 548.8 362 537.6 369.2C532.8 372.4 526.8 372.4 521.6 370C516.4 367.2 513.6 362 513.6 356.4V326.4C513.6 325.2 512.4 324 511.2 324C510 324 508.8 325.2 508.8 326.4V356C508.8 363.6 512.8 370 519.2 373.6C523.2 375.2 526.4 376 529.6 376Z" fill="#C7BCD6"/>
<path d="M650.4 346L628.8 338.8L620.8 328.8L610.4 490L651.6 462.8L650.4 346Z" fill="url(#paint78_linear)"/>
<path d="M490.8 559.2L610.8 490L621.2 328.8L501.2 398.4L490.8 559.2Z" fill="url(#paint79_linear)"/>
<path d="M535.6 530L534.8 585.2L490.8 559.2L535.6 530Z" fill="url(#paint80_linear)"/>
<path d="M530.4 415.2L520.4 403.2L501.2 398.4L490.8 559.2L534.8 530.8L530.4 415.2Z" fill="url(#paint81_linear)"/>
<path d="M534.8 585.2L654.8 516L650.4 346L530.4 415.2L534.8 585.2Z" fill="url(#paint82_linear)"/>
<path d="M606 398.4C606 401.2 608 402.4 610.4 400.8C612.8 399.2 614.8 396 614.8 393.2C614.8 390.4 612.8 389.2 610.4 390.8C608 392.4 606 395.6 606 398.4Z" fill="#47156B"/>
<path d="M562.4 422.8C562.4 425.6 564.4 426.8 566.8 425.2C569.2 424 571.2 420.4 571.2 417.6C571.2 414.8 569.2 413.6 566.8 415.2C564.4 416.8 562.4 420.4 562.4 422.8Z" fill="#47156B"/>
<path d="M583.6 466.4C587.2 466.4 590.8 465.2 594 463.2C605.6 455.6 612.4 443.2 612.4 429.2V395.2C612.4 394 611.6 393.2 610.4 393.2C609.2 393.2 608.4 394 608.4 395.2V429.2C608.4 441.6 602.4 452.8 592 459.6C587.6 462.4 582 462.8 577.2 460C572.4 457.6 569.6 452.8 569.6 447.2V419.2C569.6 418 568.8 417.2 567.6 417.2C566.4 417.2 565.6 418 565.6 419.2V447.2C565.6 454 569.2 460.4 575.6 463.6C577.6 465.6 580.8 466.4 583.6 466.4Z" fill="#C7BCD6"/>
<path d="M358 438.8L355.4 443.3L608.6 591.9L611.2 587.4L358 438.8Z" fill="#C7BCD6"/>
<path d="M613.2 544.4H608V642.8H613.2V544.4Z" fill="url(#paint83_linear)"/>
<path d="M587.2 631.2H592.8V534.4L587.2 532V631.2Z" fill="url(#paint84_linear)"/>
<path d="M571.6 519.2H566.4V619.6H571.6V519.2Z" fill="url(#paint85_linear)"/>
<path d="M550.8 506.4H545.6V608H550.8V506.4Z" fill="url(#paint86_linear)"/>
<path d="M530.4 493.6H525.2V596H530.4V493.6Z" fill="url(#paint87_linear)"/>
<path d="M509.6 480.8H504.4V584.4H509.6V480.8Z" fill="url(#paint88_linear)"/>
<path d="M488.8 468.4H483.6V572.8H488.8V468.4Z" fill="url(#paint89_linear)"/>
<path d="M468 455.6H462.8V561.2H468V455.6Z" fill="url(#paint90_linear)"/>
<path d="M447.2 442.8H442V549.2H447.2V442.8Z" fill="url(#paint91_linear)"/>
<path d="M426.4 430H421.2V537.6H426.4V430Z" fill="url(#paint92_linear)"/>
<path d="M405.6 417.2H400.4V525.6H405.6V417.2Z" fill="url(#paint93_linear)"/>
<path d="M384.8 404.4H379.6V514H384.8V404.4Z" fill="url(#paint94_linear)"/>
<path d="M745.2 478.4H740V575.2H745.2V478.4Z" fill="url(#paint95_linear)"/>
<path d="M728.8 487.6H723.6V584.4H728.8V487.6Z" fill="url(#paint96_linear)"/>
<path d="M712.8 496.8H707.6V593.6H712.8V496.8Z" fill="url(#paint97_linear)"/>
<path d="M696.4 506H691.2V602.8H696.4V506Z" fill="url(#paint98_linear)"/>
<path d="M680.4 515.2H675.2V612H680.4V515.2Z" fill="url(#paint99_linear)"/>
<path d="M664 524H658.8V620.8H664V524Z" fill="url(#paint100_linear)"/>
<path d="M648 533.2H642.8V630H648V533.2Z" fill="url(#paint101_linear)"/>
<path d="M631.6 542.4H626.4V639.2H631.6V542.4Z" fill="url(#paint102_linear)"/>
<path d="M613.6 549.6C621.6 549.6 629.6 547.6 636.8 543.2L744.8 481.2C751.2 477.6 754.8 471.2 755.2 463.6C755.2 456.4 744.4 460 744.4 463.2C744.4 466.8 742.4 470 739.6 471.6L631.6 533.6C620 540.4 605.6 540 594.4 532.8L336.4 366.8C337.2 367.2 330.8 362 330.8 362C328.4 363.6 326.8 366 326.8 368.8C326.8 371.6 328 374.4 330.4 375.6L588.4 542C596.4 547.2 604.8 549.6 613.6 549.6Z" fill="#C7BCD6"/>
<path d="M614 548.4C622 548.4 629.6 546.4 636.8 542.4L744.8 480.4C750.8 476.8 754.4 470.8 754.4 464C754.4 457.6 746 460.4 746 463.6C746 467.6 744 470.8 740.4 472.8L632.4 534.8C622 540.8 609.6 540.8 599.2 535.6C597.2 535.6 402 410.4 400.4 409.2C400.8 409.6 335.6 366.4 335.6 366.4C333.6 367.6 332.4 369.6 332.4 371.6C332.4 373.6 333.2 375.6 335.2 376.8L589.6 540.8C596.8 546 605.2 548.4 614 548.4Z" fill="#D2CADD"/>
<path d="M614 546.8C621.6 546.8 629.2 544.8 636 540.8L744 478.8C749.6 475.6 753.2 469.6 753.2 463.2C753.2 457.6 747.2 459.6 747.2 463.2C747.2 467.6 744.8 471.2 741.2 473.6L633.2 535.6C624.4 540.8 613.6 541.6 604.4 538C600.4 538 467.6 453.6 464.4 451.6C464.8 452 340.4 370.8 340.4 370.8C338.8 371.6 338 373.2 338 374.8C338 376.4 338.4 377.6 339.6 378.4L590.4 540C597.2 544.4 605.6 546.8 614 546.8Z" fill="#DCD7E4"/>
<path d="M614 545.6C621.6 545.6 628.8 543.6 635.6 540L743.6 478C748.8 474.8 752 469.6 752.4 463.6C752.4 458.8 748.4 460 748.4 463.6C748.4 468.4 745.6 472.4 741.6 474.8L633.6 536.8C626 541.2 617.2 542.4 609.2 540.8C603.2 540.8 533.2 497.6 528.4 494.4L344.8 375.6C344 376 343.2 377.2 342.8 378C342.8 378.8 342.8 379.6 343.6 380L590.4 539.2C597.6 543.2 605.6 545.6 614 545.6Z" fill="#E6E4EB"/>
<path d="M614 544C621.2 544 628.4 542 635.2 538.4L743.2 476.4C748 473.6 751.2 468.4 751.2 462.8C751.2 458.8 749.6 459.2 749.6 462.8C749.6 468 746.8 472.4 742.4 475.2L634.4 537.2C628.4 540.8 621.2 542.8 614 542.8C606.4 542.8 598.8 540.4 592 536.4L349.6 379.6C349.2 380 348.8 380 348.4 380.4H348L591.2 537.2C598 541.6 606 544 614 544Z" fill="#F1F2F2"/>
<path d="M615.6 646C624 646 632.4 644 639.6 639.6L743.6 580C746 578.4 747.2 575.2 745.6 572.8C744 570.4 740.8 569.2 738.4 570.8L634.4 630.4C622.8 637.2 608.4 637.2 596.8 630.4L385.6 509.6L324.4 333.6C320.4 322 312 312 301.6 306L282 294.8C279.6 293.2 276 294.4 274.8 296.8C273.2 299.2 274.4 302.8 276.8 304L296.4 315.2C304.8 320 311.2 328 314.4 337.2L345.6 427.2L376.8 517.2L591.6 640C599.2 644 607.2 646 615.6 646Z" fill="#C7BCD6"/>
<path d="M275.6 296.8C275.2 297.2 275.2 297.6 275.2 298C274.8 299.6 276.8 302.4 278.4 303.6L292.4 311.6C292.8 312 297.6 314.4 298 314.8C305.6 319.6 311.6 326.8 314.8 334.8C315.2 335.2 315.2 336.4 315.6 336.8L346.8 426L378 516L592.4 638.4C599.2 642.4 606.8 644.4 614.8 644.4C615.2 644.4 616 644.4 616.4 644.4C623.6 644.4 630.8 642.8 637.2 639.2C638 638.8 639.6 638 640.4 637.6L743.6 578.4C744 578 744.4 578 744.4 577.6C745.6 576 746 574 744.8 572.8C744.8 572.8 744.8 572.8 744.4 572.4C743.2 570.8 739.2 571.2 737.2 572L634.8 630.4C628.4 634 620.8 636 613.6 635.6C607.6 635.2 601.6 633.6 596 630.4L385.6 510L383.2 506L352 416L324 336C323.2 333.6 321.6 329.2 320.4 327.2C316.4 319.2 310 312.4 302.4 307.6C302 307.2 297.2 304.4 296.8 304L283.2 296C281.6 295.2 278 294.4 276.8 296C276.8 296 276.4 296 276.4 296.4C276 296.4 276 296.8 275.6 296.8Z" fill="#CDC5D9"/>
<path d="M276.8 297.2C276.4 297.6 276.4 298 276.8 298.4C276.4 299.6 280 302.4 281.2 303.2L294.8 311.2C295.6 311.6 299.2 314 300 314.4C307.2 319.2 313.2 326.4 316.4 334.8C316.4 335.2 316.8 336.4 317.2 336.8L348 425.6L379.2 515.2L593.2 637.2C600 641.2 607.6 643.2 615.2 643.2C615.6 643.2 616.4 643.2 616.8 643.2C624 643.2 631.2 641.2 637.6 638C638 637.6 640 636.8 640.4 636.4L742.8 577.6C743.2 577.2 743.6 576.8 743.6 576.8C744.4 575.6 744.4 574.4 743.6 573.2H743.2C742.4 572 737.6 573.6 736.4 574.4L635.6 632C629.2 635.6 621.6 637.6 614.4 637.2C608 637.2 601.6 635.2 595.6 632L386 512L383.2 508.4L352 418.8L324 338C323.6 336.4 321.2 330.8 320.4 329.2C316.8 320.8 310.8 314 303.2 308.8C302.4 308 298.4 306 297.6 305.2L284 297.6C282.8 296.8 278.4 295.6 277.6 296.4H277.2C277.2 296.8 276.8 296.8 276.8 297.2Z" fill="#D3CEDB"/>
<path d="M277.6 297.6C277.2 298 277.6 298.4 277.6 298.8C277.6 299.2 282 302.4 282.8 302.8L296.4 310.8C297.6 311.6 300.4 313.2 301.6 314C308.8 319.2 314.4 326.4 317.2 334.8C317.2 334.8 317.6 336.4 318 336.8L348.4 424.8L379.6 514L593.2 636C600 640 607.6 642 615.2 642C615.6 642 616.4 642 616.8 642C624 641.6 630.8 640 637.2 636.4C637.6 636.4 640 634.8 640 634.8L742 576.4C742.4 576 742.4 575.6 742.4 575.2C742.8 574.4 742.4 574 742 573.2H741.6C741.2 572.8 735.2 575.2 734.8 575.6L636 632C629.6 635.6 622.4 637.6 614.8 637.6C608 637.6 600.8 635.6 594.8 632.4L385.6 513.2L382 510L351.2 420.8L323.2 340.4C322.8 339.6 320.4 332.4 320 331.6C316.8 323.2 310.8 316 303.6 310.8C302.4 309.6 299.6 308 298 307.2L284.4 299.6C284 299.2 278.8 296.8 278.4 297.2H278C278 296.8 278 297.2 277.6 297.6Z" fill="#D9D7DE"/>
<path d="M615.6 640.4C623.2 640.4 630.8 638.4 637.6 634.8L741.6 575.2C742 574.8 742 574.4 742 574C741.6 573.6 741.6 573.6 741.2 573.6H740.8L636.8 633.2C630.4 636.8 623.2 638.8 615.6 638.8C608.4 638.8 600.8 636.8 594.4 633.2L381.6 511.6L350.8 422.8L320 334C316.4 323.2 308.8 314.4 299.2 308.8L279.6 297.6H279.2C279.2 297.6 278.8 297.6 278.4 298C278 298.4 278.4 298.8 278.8 299.2L298.4 310.4C308 316 315.2 324.4 318.8 334.8L349.6 424L380.4 513.2L593.6 634.8C600.4 638.4 608 640.4 615.6 640.4Z" fill="#DFE0E0"/>
<path d="M613.6 552.4C620 552.4 626.4 551.2 632.4 548.8C635.6 547.6 636.8 543.6 635.2 540.8L632.8 536.8C631.2 534.4 628.4 533.6 625.6 534.4C621.6 536 617.6 536.8 613.6 536.8C608.8 536.8 604 535.6 600 533.6C597.6 532.4 594.4 533.6 592.8 536L590.4 540C588.4 542.8 589.6 546.8 592.8 548.4C599.2 550.8 606.4 552.4 613.6 552.4Z" fill="url(#paint103_radial)"/>
<path d="M592.8 544.8C599.2 548 606.4 549.6 613.6 549.6C620 549.6 626.4 548.4 632.4 546C634 545.2 635.2 543.6 635.6 542C636.4 544.8 634.8 547.6 632.4 548.8C626.4 551.2 620 552.4 613.6 552.4C606.4 552.4 599.2 550.8 592.8 547.6C590.4 546.4 589.2 543.6 589.6 540.8C590 542.8 591.2 544 592.8 544.8Z" fill="#BE31B6"/>
<path d="M743.6 478.8C745.2 481.6 748.8 482 750.8 480C755.2 476 757.6 470 758 464C758 457.6 756 452 751.6 447.6C749.6 445.2 746 446 744.4 448.4L740.8 454.4C739.6 456 740 458 740.8 459.6C741.6 460.8 742 462 742 463.6C742 465.2 741.6 466.4 740.8 467.6C739.6 469.2 739.2 471.2 740.4 472.8L743.6 478.8Z" fill="url(#paint104_radial)"/>
<path d="M749.2 477.6C753.6 473.6 756 467.6 756.4 461.6C756.4 456.8 755.2 452.4 752.8 448.8C756.4 453.2 758.4 458.4 758 464C758 470.4 755.2 476 750.8 480C748.8 482 744.8 481.6 743.6 478.8L742.8 477.6C744.8 479.2 747.2 479.2 749.2 477.6Z" fill="#BE31B6"/>
<path d="M650.4 346.4L530.4 415.6L520.4 403.2L531.2 413.2L650.4 346.4Z" fill="url(#paint105_linear)"/>
<path d="M594.4 258.4L466.8 332L462 322L467.6 329.2L594.4 258.4Z" fill="url(#paint106_linear)"/>
<defs>
<linearGradient id="paint0_linear" x1="209.286" y1="745.8" x2="998.314" y2="745.8" gradientUnits="userSpaceOnUse">
<stop stop-color="#2F054A"/>
<stop offset="1" stop-color="#5824B0"/>
</linearGradient>
<linearGradient id="paint1_linear" x1="313.045" y1="742.349" x2="1101.85" y2="742.349" gradientUnits="userSpaceOnUse">
<stop offset="0.0555556" stop-color="#2F0D5E"/>
<stop offset="0.2777" stop-color="#2F105F"/>
<stop offset="0.4697" stop-color="#311B61"/>
<stop offset="0.482" stop-color="#351F65"/>
<stop offset="0.4954" stop-color="#422C73"/>
<stop offset="0.5093" stop-color="#584188"/>
<stop offset="0.5235" stop-color="#765FA7"/>
<stop offset="0.5303" stop-color="#8770B8"/>
<stop offset="0.5366" stop-color="#7E67AE"/>
<stop offset="0.5617" stop-color="#5C468D"/>
<stop offset="0.5857" stop-color="#442E75"/>
<stop offset="0.6078" stop-color="#362066"/>
<stop offset="0.6263" stop-color="#311B61"/>
<stop offset="0.6724" stop-color="#2A1155"/>
<stop offset="0.7491" stop-color="#230446"/>
<stop offset="0.8131" stop-color="#200041"/>
<stop offset="1" stop-color="#200041"/>
</linearGradient>
<linearGradient id="paint2_linear" x1="209.286" y1="725.4" x2="998.314" y2="725.4" gradientUnits="userSpaceOnUse">
<stop stop-color="#58098A"/>
<stop offset="1" stop-color="#9E3BDB"/>
</linearGradient>
<linearGradient id="paint3_linear" x1="1155.95" y1="830.521" x2="366.75" y2="830.521" gradientUnits="userSpaceOnUse">
<stop offset="0.0555556" stop-color="#2F0D5E"/>
<stop offset="0.2777" stop-color="#2F105F"/>
<stop offset="0.4697" stop-color="#311B61"/>
<stop offset="0.482" stop-color="#351F65"/>
<stop offset="0.4954" stop-color="#422C73"/>
<stop offset="0.5093" stop-color="#584188"/>
<stop offset="0.5235" stop-color="#765FA7"/>
<stop offset="0.5303" stop-color="#8770B8"/>
<stop offset="0.5366" stop-color="#7E67AE"/>
<stop offset="0.5617" stop-color="#5C468D"/>
<stop offset="0.5857" stop-color="#442E75"/>
<stop offset="0.6078" stop-color="#362066"/>
<stop offset="0.6263" stop-color="#311B61"/>
<stop offset="0.6724" stop-color="#2A1155"/>
<stop offset="0.7491" stop-color="#230446"/>
<stop offset="0.8131" stop-color="#200041"/>
<stop offset="1" stop-color="#200041"/>
</linearGradient>
<linearGradient id="paint4_linear" x1="217.159" y1="725.6" x2="990.441" y2="725.6" gradientUnits="userSpaceOnUse">
<stop stop-color="#2F054A"/>
<stop offset="1" stop-color="#5E1D9A"/>
</linearGradient>
<linearGradient id="paint5_linear" x1="564.499" y1="528.496" x2="701.447" y2="1213.23" gradientUnits="userSpaceOnUse">
<stop offset="0.010101" stop-color="#9F19AB"/>
<stop offset="0.4293" stop-color="#5F27BD"/>
<stop offset="0.904" stop-color="#3D065F"/>
</linearGradient>
<linearGradient id="paint6_linear" x1="580.008" y1="835.186" x2="560.524" y2="801.438" gradientUnits="userSpaceOnUse">
<stop stop-color="#1E1F21"/>
<stop offset="0.0762293" stop-color="#2C2E30"/>
<stop offset="0.2233" stop-color="#515359"/>
<stop offset="0.2677" stop-color="#5D6066"/>
<stop offset="0.6061" stop-color="#37383C"/>
</linearGradient>
<linearGradient id="paint7_linear" x1="546.876" y1="820.859" x2="578.244" y2="820.859" gradientUnits="userSpaceOnUse">
<stop stop-color="#484B4F"/>
<stop offset="1" stop-color="#1E1F21"/>
</linearGradient>
<linearGradient id="paint8_linear" x1="555.244" y1="823.849" x2="569.876" y2="823.849" gradientUnits="userSpaceOnUse">
<stop stop-color="#D4D1D8"/>
<stop offset="0.8549" stop-color="#A5A6B9"/>
<stop offset="1" stop-color="#9D9EB3"/>
</linearGradient>
<radialGradient id="paint9_radial" cx="0" cy="0" r="1" gradientUnits="userSpaceOnUse" gradientTransform="translate(565.788 820.625) scale(14.06)">
<stop stop-color="white"/>
<stop offset="1"/>
</radialGradient>
<linearGradient id="paint10_linear" x1="421.542" y1="739.872" x2="402.058" y2="706.124" gradientUnits="userSpaceOnUse">
<stop stop-color="#1E1F21"/>
<stop offset="0.0762293" stop-color="#2C2E30"/>
<stop offset="0.2233" stop-color="#515359"/>
<stop offset="0.2677" stop-color="#5D6066"/>
<stop offset="0.6061" stop-color="#37383C"/>
</linearGradient>
<linearGradient id="paint11_linear" x1="388.441" y1="725.659" x2="419.808" y2="725.659" gradientUnits="userSpaceOnUse">
<stop stop-color="#484B4F"/>
<stop offset="1" stop-color="#1E1F21"/>
</linearGradient>
<linearGradient id="paint12_linear" x1="396.8" y1="728.649" x2="411.431" y2="728.649" gradientUnits="userSpaceOnUse">
<stop stop-color="#D4D1D8"/>
<stop offset="0.8549" stop-color="#A5A6B9"/>
<stop offset="1" stop-color="#9D9EB3"/>
</linearGradient>
<radialGradient id="paint13_radial" cx="0" cy="0" r="1" gradientUnits="userSpaceOnUse" gradientTransform="translate(407.352 725.318) scale(14.0727)">
<stop stop-color="white"/>
<stop offset="1"/>
</radialGradient>
<linearGradient id="paint14_linear" x1="734.366" y1="747.512" x2="714.882" y2="713.764" gradientUnits="userSpaceOnUse">
<stop stop-color="#1E1F21"/>
<stop offset="0.0762293" stop-color="#2C2E30"/>
<stop offset="0.2233" stop-color="#515359"/>
<stop offset="0.2677" stop-color="#5D6066"/>
<stop offset="0.6061" stop-color="#37383C"/>
</linearGradient>
<linearGradient id="paint15_linear" x1="701.284" y1="733.259" x2="732.652" y2="733.259" gradientUnits="userSpaceOnUse">
<stop stop-color="#484B4F"/>
<stop offset="1" stop-color="#1E1F21"/>
</linearGradient>
<linearGradient id="paint16_linear" x1="709.652" y1="736.249" x2="724.284" y2="736.249" gradientUnits="userSpaceOnUse">
<stop stop-color="#D4D1D8"/>
<stop offset="0.8549" stop-color="#A5A6B9"/>
<stop offset="1" stop-color="#9D9EB3"/>
</linearGradient>
<radialGradient id="paint17_radial" cx="0" cy="0" r="1" gradientUnits="userSpaceOnUse" gradientTransform="translate(720.196 732.92) scale(14.0684)">
<stop stop-color="white"/>
<stop offset="1"/>
</radialGradient>
<linearGradient id="paint18_linear" x1="518.056" y1="342.6" x2="512.684" y2="342.6" gradientUnits="userSpaceOnUse">
<stop offset="0.0252525" stop-color="#C7BCD6"/>
<stop offset="0.297" stop-color="#E2E2E6"/>
<stop offset="0.3333" stop-color="#E6E7E8"/>
<stop offset="0.4267" stop-color="#DCDAE2"/>
<stop offset="0.5911" stop-color="#D0C9DB"/>
<stop offset="0.7722" stop-color="#C9BFD7"/>
<stop offset="1" stop-color="#C7BCD6"/>
</linearGradient>
<linearGradient id="paint19_linear" x1="754.46" y1="510" x2="749.092" y2="510" gradientUnits="userSpaceOnUse">
<stop offset="0.0252525" stop-color="#C7BCD6"/>
<stop offset="0.297" stop-color="#E2E2E6"/>
<stop offset="0.3333" stop-color="#E6E7E8"/>
<stop offset="0.4267" stop-color="#DCDAE2"/>
<stop offset="0.5911" stop-color="#D0C9DB"/>
<stop offset="0.7722" stop-color="#C9BFD7"/>
<stop offset="1" stop-color="#C7BCD6"/>
</linearGradient>
<linearGradient id="paint20_linear" x1="734.696" y1="497.8" x2="729.324" y2="497.8" gradientUnits="userSpaceOnUse">
<stop offset="0.0252525" stop-color="#C7BCD6"/>
<stop offset="0.297" stop-color="#E2E2E6"/>
<stop offset="0.3333" stop-color="#E6E7E8"/>
<stop offset="0.4267" stop-color="#DCDAE2"/>
<stop offset="0.5911" stop-color="#D0C9DB"/>
<stop offset="0.7722" stop-color="#C9BFD7"/>
<stop offset="1" stop-color="#C7BCD6"/>
</linearGradient>
<linearGradient id="paint21_linear" x1="714.932" y1="485.4" x2="709.56" y2="485.4" gradientUnits="userSpaceOnUse">
<stop offset="0.0252525" stop-color="#C7BCD6"/>
<stop offset="0.297" stop-color="#E2E2E6"/>
<stop offset="0.3333" stop-color="#E6E7E8"/>
<stop offset="0.4267" stop-color="#DCDAE2"/>
<stop offset="0.5911" stop-color="#D0C9DB"/>
<stop offset="0.7722" stop-color="#C9BFD7"/>
<stop offset="1" stop-color="#C7BCD6"/>
</linearGradient>
<linearGradient id="paint22_linear" x1="695.168" y1="472.8" x2="689.796" y2="472.8" gradientUnits="userSpaceOnUse">
<stop offset="0.0252525" stop-color="#C7BCD6"/>
<stop offset="0.297" stop-color="#E2E2E6"/>
<stop offset="0.3333" stop-color="#E6E7E8"/>
<stop offset="0.4267" stop-color="#DCDAE2"/>
<stop offset="0.5911" stop-color="#D0C9DB"/>
<stop offset="0.7722" stop-color="#C9BFD7"/>
<stop offset="1" stop-color="#C7BCD6"/>
</linearGradient>
<linearGradient id="paint23_linear" x1="675.4" y1="460.4" x2="670.032" y2="460.4" gradientUnits="userSpaceOnUse">
<stop offset="0.0252525" stop-color="#C7BCD6"/>
<stop offset="0.297" stop-color="#E2E2E6"/>
<stop offset="0.3333" stop-color="#E6E7E8"/>
<stop offset="0.4267" stop-color="#DCDAE2"/>
<stop offset="0.5911" stop-color="#D0C9DB"/>
<stop offset="0.7722" stop-color="#C9BFD7"/>
<stop offset="1" stop-color="#C7BCD6"/>
</linearGradient>
<linearGradient id="paint24_linear" x1="655.64" y1="448.2" x2="650.268" y2="448.2" gradientUnits="userSpaceOnUse">
<stop offset="0.0252525" stop-color="#C7BCD6"/>
<stop offset="0.297" stop-color="#E2E2E6"/>
<stop offset="0.3333" stop-color="#E6E7E8"/>
<stop offset="0.4267" stop-color="#DCDAE2"/>
<stop offset="0.5911" stop-color="#D0C9DB"/>
<stop offset="0.7722" stop-color="#C9BFD7"/>
<stop offset="1" stop-color="#C7BCD6"/>
</linearGradient>
<linearGradient id="paint25_linear" x1="635.872" y1="435.8" x2="630.504" y2="435.8" gradientUnits="userSpaceOnUse">
<stop offset="0.0252525" stop-color="#C7BCD6"/>
<stop offset="0.297" stop-color="#E2E2E6"/>
<stop offset="0.3333" stop-color="#E6E7E8"/>
<stop offset="0.4267" stop-color="#DCDAE2"/>
<stop offset="0.5911" stop-color="#D0C9DB"/>
<stop offset="0.7722" stop-color="#C9BFD7"/>
<stop offset="1" stop-color="#C7BCD6"/>
</linearGradient>
<linearGradient id="paint26_linear" x1="616.108" y1="423.6" x2="610.736" y2="423.6" gradientUnits="userSpaceOnUse">
<stop offset="0.0252525" stop-color="#C7BCD6"/>
<stop offset="0.297" stop-color="#E2E2E6"/>
<stop offset="0.3333" stop-color="#E6E7E8"/>
<stop offset="0.4267" stop-color="#DCDAE2"/>
<stop offset="0.5911" stop-color="#D0C9DB"/>
<stop offset="0.7722" stop-color="#C9BFD7"/>
<stop offset="1" stop-color="#C7BCD6"/>
</linearGradient>
<linearGradient id="paint27_linear" x1="596.344" y1="410.8" x2="590.972" y2="410.8" gradientUnits="userSpaceOnUse">
<stop offset="0.0252525" stop-color="#C7BCD6"/>
<stop offset="0.297" stop-color="#E2E2E6"/>
<stop offset="0.3333" stop-color="#E6E7E8"/>
<stop offset="0.4267" stop-color="#DCDAE2"/>
<stop offset="0.5911" stop-color="#D0C9DB"/>
<stop offset="0.7722" stop-color="#C9BFD7"/>
<stop offset="1" stop-color="#C7BCD6"/>
</linearGradient>
<linearGradient id="paint28_linear" x1="576.58" y1="398.6" x2="571.208" y2="398.6" gradientUnits="userSpaceOnUse">
<stop offset="0.0252525" stop-color="#C7BCD6"/>
<stop offset="0.297" stop-color="#E2E2E6"/>
<stop offset="0.3333" stop-color="#E6E7E8"/>
<stop offset="0.4267" stop-color="#DCDAE2"/>
<stop offset="0.5911" stop-color="#D0C9DB"/>
<stop offset="0.7722" stop-color="#C9BFD7"/>
<stop offset="1" stop-color="#C7BCD6"/>
</linearGradient>
<linearGradient id="paint29_linear" x1="556.812" y1="386.2" x2="551.444" y2="386.2" gradientUnits="userSpaceOnUse">
<stop offset="0.0252525" stop-color="#C7BCD6"/>
<stop offset="0.297" stop-color="#E2E2E6"/>
<stop offset="0.3333" stop-color="#E6E7E8"/>
<stop offset="0.4267" stop-color="#DCDAE2"/>
<stop offset="0.5911" stop-color="#D0C9DB"/>
<stop offset="0.7722" stop-color="#C9BFD7"/>
<stop offset="1" stop-color="#C7BCD6"/>
</linearGradient>
<linearGradient id="paint30_linear" x1="537.048" y1="374" x2="531.676" y2="374" gradientUnits="userSpaceOnUse">
<stop offset="0.0252525" stop-color="#C7BCD6"/>
<stop offset="0.297" stop-color="#E2E2E6"/>
<stop offset="0.3333" stop-color="#E6E7E8"/>
<stop offset="0.4267" stop-color="#DCDAE2"/>
<stop offset="0.5911" stop-color="#D0C9DB"/>
<stop offset="0.7722" stop-color="#C9BFD7"/>
<stop offset="1" stop-color="#C7BCD6"/>
</linearGradient>
<linearGradient id="paint31_linear" x1="572.104" y1="624.583" x2="549.6" y2="585.607" gradientUnits="userSpaceOnUse">
<stop stop-color="#1E1F21"/>
<stop offset="0.0762293" stop-color="#2C2E30"/>
<stop offset="0.2233" stop-color="#515359"/>
<stop offset="0.2677" stop-color="#5D6066"/>
<stop offset="0.6061" stop-color="#37383C"/>
</linearGradient>
<linearGradient id="paint32_linear" x1="537.672" y1="609.2" x2="569.04" y2="609.2" gradientUnits="userSpaceOnUse">
<stop stop-color="#484B4F"/>
<stop offset="1" stop-color="#1E1F21"/>
</linearGradient>
<linearGradient id="paint33_linear" x1="546.04" y1="609.2" x2="560.672" y2="609.2" gradientUnits="userSpaceOnUse">
<stop stop-color="#D4D1D8"/>
<stop offset="0.8549" stop-color="#A5A6B9"/>
<stop offset="1" stop-color="#9D9EB3"/>
</linearGradient>
<radialGradient id="paint34_radial" cx="0" cy="0" r="1" gradientUnits="userSpaceOnUse" gradientTransform="translate(556.585 608.985) scale(16.9436)">
<stop stop-color="white"/>
<stop offset="1"/>
</radialGradient>
<linearGradient id="paint35_linear" x1="586" y1="592.8" x2="548.872" y2="592.8" gradientUnits="userSpaceOnUse">
<stop offset="0.0252525" stop-color="#B82CB4"/>
<stop offset="1" stop-color="#D644BF"/>
</linearGradient>
<linearGradient id="paint36_linear" x1="731.646" y1="717.089" x2="709.146" y2="678.113" gradientUnits="userSpaceOnUse">
<stop stop-color="#1E1F21"/>
<stop offset="0.0762293" stop-color="#2C2E30"/>
<stop offset="0.2233" stop-color="#515359"/>
<stop offset="0.2677" stop-color="#5D6066"/>
<stop offset="0.6061" stop-color="#37383C"/>
</linearGradient>
<linearGradient id="paint37_linear" x1="697.024" y1="702" x2="728.388" y2="702" gradientUnits="userSpaceOnUse">
<stop stop-color="#484B4F"/>
<stop offset="1" stop-color="#1E1F21"/>
</linearGradient>
<linearGradient id="paint38_linear" x1="705.392" y1="702" x2="720.02" y2="702" gradientUnits="userSpaceOnUse">
<stop stop-color="#D4D1D8"/>
<stop offset="0.8549" stop-color="#A5A6B9"/>
<stop offset="1" stop-color="#9D9EB3"/>
</linearGradient>
<radialGradient id="paint39_radial" cx="0" cy="0" r="1" gradientUnits="userSpaceOnUse" gradientTransform="translate(715.936 701.608) scale(16.9436)">
<stop stop-color="white"/>
<stop offset="1"/>
</radialGradient>
<linearGradient id="paint40_linear" x1="745.348" y1="685.6" x2="708.22" y2="685.6" gradientUnits="userSpaceOnUse">
<stop offset="0.0252525" stop-color="#B82CB4"/>
<stop offset="1" stop-color="#D644BF"/>
</linearGradient>
<linearGradient id="paint41_linear" x1="490.539" y1="621.414" x2="492.967" y2="625.622" gradientUnits="userSpaceOnUse">
<stop offset="0.0252525" stop-color="#C7BCD6"/>
<stop offset="0.297" stop-color="#E2E2E6"/>
<stop offset="0.3333" stop-color="#E6E7E8"/>
<stop offset="0.4267" stop-color="#DCDAE2"/>
<stop offset="0.5911" stop-color="#D0C9DB"/>
<stop offset="0.7722" stop-color="#C9BFD7"/>
<stop offset="1" stop-color="#C7BCD6"/>
</linearGradient>
<linearGradient id="paint42_linear" x1="509.889" y1="632.907" x2="512.613" y2="637.623" gradientUnits="userSpaceOnUse">
<stop offset="0.0252525" stop-color="#C7BCD6"/>
<stop offset="0.297" stop-color="#E2E2E6"/>
<stop offset="0.3333" stop-color="#E6E7E8"/>
<stop offset="0.4267" stop-color="#DCDAE2"/>
<stop offset="0.5911" stop-color="#D0C9DB"/>
<stop offset="0.7722" stop-color="#C9BFD7"/>
<stop offset="1" stop-color="#C7BCD6"/>
</linearGradient>
<linearGradient id="paint43_linear" x1="529.334" y1="644.486" x2="532.058" y2="649.202" gradientUnits="userSpaceOnUse">
<stop offset="0.0252525" stop-color="#C7BCD6"/>
<stop offset="0.297" stop-color="#E2E2E6"/>
<stop offset="0.3333" stop-color="#E6E7E8"/>
<stop offset="0.4267" stop-color="#DCDAE2"/>
<stop offset="0.5911" stop-color="#D0C9DB"/>
<stop offset="0.7722" stop-color="#C9BFD7"/>
<stop offset="1" stop-color="#C7BCD6"/>
</linearGradient>
<linearGradient id="paint44_linear" x1="548.836" y1="656.039" x2="551.56" y2="660.755" gradientUnits="userSpaceOnUse">
<stop offset="0.0252525" stop-color="#C7BCD6"/>
<stop offset="0.297" stop-color="#E2E2E6"/>
<stop offset="0.3333" stop-color="#E6E7E8"/>
<stop offset="0.4267" stop-color="#DCDAE2"/>
<stop offset="0.5911" stop-color="#D0C9DB"/>
<stop offset="0.7722" stop-color="#C9BFD7"/>
<stop offset="1" stop-color="#C7BCD6"/>
</linearGradient>
<linearGradient id="paint45_linear" x1="568.341" y1="667.589" x2="571.061" y2="672.305" gradientUnits="userSpaceOnUse">
<stop offset="0.0252525" stop-color="#C7BCD6"/>
<stop offset="0.297" stop-color="#E2E2E6"/>
<stop offset="0.3333" stop-color="#E6E7E8"/>
<stop offset="0.4267" stop-color="#DCDAE2"/>
<stop offset="0.5911" stop-color="#D0C9DB"/>
<stop offset="0.7722" stop-color="#C9BFD7"/>
<stop offset="1" stop-color="#C7BCD6"/>
</linearGradient>
<linearGradient id="paint46_linear" x1="587.785" y1="679.174" x2="590.509" y2="683.89" gradientUnits="userSpaceOnUse">
<stop offset="0.0252525" stop-color="#C7BCD6"/>
<stop offset="0.297" stop-color="#E2E2E6"/>
<stop offset="0.3333" stop-color="#E6E7E8"/>
<stop offset="0.4267" stop-color="#DCDAE2"/>
<stop offset="0.5911" stop-color="#D0C9DB"/>
<stop offset="0.7722" stop-color="#C9BFD7"/>
<stop offset="1" stop-color="#C7BCD6"/>
</linearGradient>
<linearGradient id="paint47_linear" x1="607.199" y1="690.771" x2="609.919" y2="695.487" gradientUnits="userSpaceOnUse">
<stop offset="0.0252525" stop-color="#C7BCD6"/>
<stop offset="0.297" stop-color="#E2E2E6"/>
<stop offset="0.3333" stop-color="#E6E7E8"/>
<stop offset="0.4267" stop-color="#DCDAE2"/>
<stop offset="0.5911" stop-color="#D0C9DB"/>
<stop offset="0.7722" stop-color="#C9BFD7"/>
<stop offset="1" stop-color="#C7BCD6"/>
</linearGradient>
<linearGradient id="paint48_linear" x1="626.84" y1="702.242" x2="629.56" y2="706.958" gradientUnits="userSpaceOnUse">
<stop offset="0.0252525" stop-color="#C7BCD6"/>
<stop offset="0.297" stop-color="#E2E2E6"/>
<stop offset="0.3333" stop-color="#E6E7E8"/>
<stop offset="0.4267" stop-color="#DCDAE2"/>
<stop offset="0.5911" stop-color="#D0C9DB"/>
<stop offset="0.7722" stop-color="#C9BFD7"/>
<stop offset="1" stop-color="#C7BCD6"/>
</linearGradient>
<linearGradient id="paint49_linear" x1="646.245" y1="713.853" x2="648.969" y2="718.569" gradientUnits="userSpaceOnUse">
<stop offset="0.0252525" stop-color="#C7BCD6"/>
<stop offset="0.297" stop-color="#E2E2E6"/>
<stop offset="0.3333" stop-color="#E6E7E8"/>
<stop offset="0.4267" stop-color="#DCDAE2"/>
<stop offset="0.5911" stop-color="#D0C9DB"/>
<stop offset="0.7722" stop-color="#C9BFD7"/>
<stop offset="1" stop-color="#C7BCD6"/>
</linearGradient>
<linearGradient id="paint50_linear" x1="491.978" y1="362.821" x2="486.606" y2="364.667" gradientUnits="userSpaceOnUse">
<stop offset="0.0252525" stop-color="#C7BCD6"/>
<stop offset="0.297" stop-color="#E2E2E6"/>
<stop offset="0.3333" stop-color="#E6E7E8"/>
<stop offset="0.4267" stop-color="#DCDAE2"/>
<stop offset="0.5911" stop-color="#D0C9DB"/>
<stop offset="0.7722" stop-color="#C9BFD7"/>
<stop offset="1" stop-color="#C7BCD6"/>
</linearGradient>
<linearGradient id="paint51_linear" x1="475.228" y1="372.4" x2="469.708" y2="374.3" gradientUnits="userSpaceOnUse">
<stop offset="0.0252525" stop-color="#C7BCD6"/>
<stop offset="0.297" stop-color="#E2E2E6"/>
<stop offset="0.3333" stop-color="#E6E7E8"/>
<stop offset="0.4267" stop-color="#DCDAE2"/>
<stop offset="0.5911" stop-color="#D0C9DB"/>
<stop offset="0.7722" stop-color="#C9BFD7"/>
<stop offset="1" stop-color="#C7BCD6"/>
</linearGradient>
<linearGradient id="paint52_linear" x1="458.423" y1="382.028" x2="452.903" y2="383.929" gradientUnits="userSpaceOnUse">
<stop offset="0.0252525" stop-color="#C7BCD6"/>
<stop offset="0.297" stop-color="#E2E2E6"/>
<stop offset="0.3333" stop-color="#E6E7E8"/>
<stop offset="0.4267" stop-color="#DCDAE2"/>
<stop offset="0.5911" stop-color="#D0C9DB"/>
<stop offset="0.7722" stop-color="#C9BFD7"/>
<stop offset="1" stop-color="#C7BCD6"/>
</linearGradient>
<linearGradient id="paint53_linear" x1="441.613" y1="391.631" x2="436.093" y2="393.532" gradientUnits="userSpaceOnUse">
<stop offset="0.0252525" stop-color="#C7BCD6"/>
<stop offset="0.297" stop-color="#E2E2E6"/>
<stop offset="0.3333" stop-color="#E6E7E8"/>
<stop offset="0.4267" stop-color="#DCDAE2"/>
<stop offset="0.5911" stop-color="#D0C9DB"/>
<stop offset="0.7722" stop-color="#C9BFD7"/>
<stop offset="1" stop-color="#C7BCD6"/>
</linearGradient>
<linearGradient id="paint54_linear" x1="424.8" y1="401.236" x2="419.28" y2="403.136" gradientUnits="userSpaceOnUse">
<stop offset="0.0252525" stop-color="#C7BCD6"/>
<stop offset="0.297" stop-color="#E2E2E6"/>
<stop offset="0.3333" stop-color="#E6E7E8"/>
<stop offset="0.4267" stop-color="#DCDAE2"/>
<stop offset="0.5911" stop-color="#D0C9DB"/>
<stop offset="0.7722" stop-color="#C9BFD7"/>
<stop offset="1" stop-color="#C7BCD6"/>
</linearGradient>
<linearGradient id="paint55_linear" x1="407.991" y1="410.837" x2="402.471" y2="412.741" gradientUnits="userSpaceOnUse">
<stop offset="0.0252525" stop-color="#C7BCD6"/>
<stop offset="0.297" stop-color="#E2E2E6"/>
<stop offset="0.3333" stop-color="#E6E7E8"/>
<stop offset="0.4267" stop-color="#DCDAE2"/>
<stop offset="0.5911" stop-color="#D0C9DB"/>
<stop offset="0.7722" stop-color="#C9BFD7"/>
<stop offset="1" stop-color="#C7BCD6"/>
</linearGradient>
<linearGradient id="paint56_linear" x1="391.18" y1="420.443" x2="385.659" y2="422.343" gradientUnits="userSpaceOnUse">
<stop offset="0.0252525" stop-color="#C7BCD6"/>
<stop offset="0.297" stop-color="#E2E2E6"/>
<stop offset="0.3333" stop-color="#E6E7E8"/>
<stop offset="0.4267" stop-color="#DCDAE2"/>
<stop offset="0.5911" stop-color="#D0C9DB"/>
<stop offset="0.7722" stop-color="#C9BFD7"/>
<stop offset="1" stop-color="#C7BCD6"/>
</linearGradient>
<linearGradient id="paint57_linear" x1="374.397" y1="430.132" x2="368.877" y2="432.032" gradientUnits="userSpaceOnUse">
<stop offset="0.0252525" stop-color="#C7BCD6"/>
<stop offset="0.297" stop-color="#E2E2E6"/>
<stop offset="0.3333" stop-color="#E6E7E8"/>
<stop offset="0.4267" stop-color="#DCDAE2"/>
<stop offset="0.5911" stop-color="#D0C9DB"/>
<stop offset="0.7722" stop-color="#C9BFD7"/>
<stop offset="1" stop-color="#C7BCD6"/>
</linearGradient>
<linearGradient id="paint58_linear" x1="470.848" y1="308.232" x2="396.329" y2="478.08" gradientUnits="userSpaceOnUse">
<stop offset="0.0252525" stop-color="#B82CB4"/>
<stop offset="0.4545" stop-color="#D644BF"/>
<stop offset="1" stop-color="#EC55C7"/>
</linearGradient>
<linearGradient id="paint59_linear" x1="581.302" y1="804.653" x2="558.798" y2="765.677" gradientUnits="userSpaceOnUse">
<stop stop-color="#1E1F21"/>
<stop offset="0.0762293" stop-color="#2C2E30"/>
<stop offset="0.2233" stop-color="#515359"/>
<stop offset="0.2677" stop-color="#5D6066"/>
<stop offset="0.6061" stop-color="#37383C"/>
</linearGradient>
<linearGradient id="paint60_linear" x1="546.876" y1="789.6" x2="578.244" y2="789.6" gradientUnits="userSpaceOnUse">
<stop stop-color="#484B4F"/>
<stop offset="1" stop-color="#1E1F21"/>
</linearGradient>
<linearGradient id="paint61_linear" x1="555.244" y1="789.6" x2="569.876" y2="789.6" gradientUnits="userSpaceOnUse">
<stop stop-color="#D4D1D8"/>
<stop offset="0.8549" stop-color="#A5A6B9"/>
<stop offset="1" stop-color="#9D9EB3"/>
</linearGradient>
<radialGradient id="paint62_radial" cx="0" cy="0" r="1" gradientUnits="userSpaceOnUse" gradientTransform="translate(565.789 789.045) scale(16.9436)">
<stop stop-color="white"/>
<stop offset="1"/>
</radialGradient>
<linearGradient id="paint63_linear" x1="595.2" y1="773" x2="558.068" y2="773" gradientUnits="userSpaceOnUse">
<stop offset="0.0252525" stop-color="#B82CB4"/>
<stop offset="1" stop-color="#D644BF"/>
</linearGradient>
<linearGradient id="paint64_linear" x1="422.088" y1="711.961" x2="399.587" y2="672.985" gradientUnits="userSpaceOnUse">
<stop stop-color="#1E1F21"/>
<stop offset="0.0762293" stop-color="#2C2E30"/>
<stop offset="0.2233" stop-color="#515359"/>
<stop offset="0.2677" stop-color="#5D6066"/>
<stop offset="0.6061" stop-color="#37383C"/>
</linearGradient>
<linearGradient id="paint65_linear" x1="387.527" y1="696.8" x2="418.892" y2="696.8" gradientUnits="userSpaceOnUse">
<stop stop-color="#484B4F"/>
<stop offset="1" stop-color="#1E1F21"/>
</linearGradient>
<linearGradient id="paint66_linear" x1="395.895" y1="696.8" x2="410.524" y2="696.8" gradientUnits="userSpaceOnUse">
<stop stop-color="#D4D1D8"/>
<stop offset="0.8549" stop-color="#A5A6B9"/>
<stop offset="1" stop-color="#9D9EB3"/>
</linearGradient>
<radialGradient id="paint67_radial" cx="0" cy="0" r="1" gradientUnits="userSpaceOnUse" gradientTransform="translate(406.44 696.444) scale(16.9436)">
<stop stop-color="white"/>
<stop offset="1"/>
</radialGradient>
<linearGradient id="paint68_linear" x1="435.852" y1="680.4" x2="398.724" y2="680.4" gradientUnits="userSpaceOnUse">
<stop offset="0.0252525" stop-color="#B82CB4"/>
<stop offset="1" stop-color="#D644BF"/>
</linearGradient>
<linearGradient id="paint69_linear" x1="364.342" y1="426.2" x2="358.971" y2="426.2" gradientUnits="userSpaceOnUse">
<stop offset="0.0252525" stop-color="#C7BCD6"/>
<stop offset="0.297" stop-color="#E2E2E6"/>
<stop offset="0.3333" stop-color="#E6E7E8"/>
<stop offset="0.4267" stop-color="#DCDAE2"/>
<stop offset="0.5911" stop-color="#D0C9DB"/>
<stop offset="0.7722" stop-color="#C9BFD7"/>
<stop offset="1" stop-color="#C7BCD6"/>
</linearGradient>
<linearGradient id="paint70_linear" x1="365.458" y1="267.029" x2="353.244" y2="245.874" gradientUnits="userSpaceOnUse">
<stop offset="0.1111" stop-color="#AB1FA7"/>
<stop offset="0.3932" stop-color="#D13CBB"/>
<stop offset="0.6414" stop-color="#F558CE"/>
<stop offset="0.9343" stop-color="#D644BF"/>
</linearGradient>
<linearGradient id="paint71_linear" x1="284.535" y1="301.813" x2="218.296" y2="294.204" gradientUnits="userSpaceOnUse">
<stop offset="0.0252525" stop-color="#B82CB4"/>
<stop offset="1" stop-color="#D644BF"/>
</linearGradient>
<radialGradient id="paint72_radial" cx="0" cy="0" r="1" gradientUnits="userSpaceOnUse" gradientTransform="translate(280.916 300.975) scale(8.22401)">
<stop stop-color="white"/>
<stop offset="1"/>
</radialGradient>
<linearGradient id="paint73_linear" x1="619.361" y1="322.406" x2="467.381" y2="400.15" gradientUnits="userSpaceOnUse">
<stop offset="0.0353535" stop-color="#138BBD"/>
<stop offset="0.2257" stop-color="#169AC7"/>
<stop offset="0.5946" stop-color="#1FC3DF"/>
<stop offset="1" stop-color="#2AF6FF"/>
</linearGradient>
<linearGradient id="paint74_linear" x1="523.249" y1="412.075" x2="374.519" y2="189.867" gradientUnits="userSpaceOnUse">
<stop offset="0.0353535" stop-color="#138BBD"/>
<stop offset="0.2257" stop-color="#169AC7"/>
<stop offset="0.5946" stop-color="#1FC3DF"/>
<stop offset="1" stop-color="#2AF6FF"/>
</linearGradient>
<linearGradient id="paint75_linear" x1="501.72" y1="497.164" x2="452.168" y2="541.608" gradientUnits="userSpaceOnUse">
<stop offset="0.0353535" stop-color="#138BBD"/>
<stop offset="0.2257" stop-color="#169AC7"/>
<stop offset="0.5946" stop-color="#1FC3DF"/>
<stop offset="1" stop-color="#2AF6FF"/>
</linearGradient>
<linearGradient id="paint76_linear" x1="493.269" y1="397.764" x2="345.432" y2="473.391" gradientUnits="userSpaceOnUse">
<stop offset="0.0353535" stop-color="#138BBD"/>
<stop offset="0.2257" stop-color="#169AC7"/>
<stop offset="0.5946" stop-color="#1FC3DF"/>
<stop offset="1" stop-color="#2AF6FF"/>
</linearGradient>
<linearGradient id="paint77_linear" x1="292.861" y1="305.594" x2="640.651" y2="450.721" gradientUnits="userSpaceOnUse">
<stop offset="0.0353535" stop-color="#138BBD"/>
<stop offset="0.2257" stop-color="#169AC7"/>
<stop offset="0.5946" stop-color="#1FC3DF"/>
<stop offset="1" stop-color="#2AF6FF"/>
</linearGradient>
<linearGradient id="paint78_linear" x1="663.515" y1="384.888" x2="537.732" y2="449.235" gradientUnits="userSpaceOnUse">
<stop offset="0.0353535" stop-color="#9F19AB"/>
<stop offset="0.2438" stop-color="#AE25B1"/>
<stop offset="0.6455" stop-color="#D744BF"/>
<stop offset="1" stop-color="#FF63CE"/>
</linearGradient>
<linearGradient id="paint79_linear" x1="568.929" y1="463.317" x2="459.089" y2="299.209" gradientUnits="userSpaceOnUse">
<stop offset="0.0353535" stop-color="#9F19AB"/>
<stop offset="0.2438" stop-color="#AE25B1"/>
<stop offset="0.6455" stop-color="#D744BF"/>
<stop offset="1" stop-color="#FF63CE"/>
</linearGradient>
<linearGradient id="paint80_linear" x1="562.065" y1="528.013" x2="510.681" y2="574.101" gradientUnits="userSpaceOnUse">
<stop offset="0.0353535" stop-color="#9F19AB"/>
<stop offset="0.2438" stop-color="#AE25B1"/>
<stop offset="0.6455" stop-color="#D744BF"/>
<stop offset="1" stop-color="#FF63CE"/>
</linearGradient>
<linearGradient id="paint81_linear" x1="543.776" y1="454.359" x2="417.992" y2="518.707" gradientUnits="userSpaceOnUse">
<stop offset="0.0353535" stop-color="#9F19AB"/>
<stop offset="0.2438" stop-color="#AE25B1"/>
<stop offset="0.6455" stop-color="#D744BF"/>
<stop offset="1" stop-color="#FF63CE"/>
</linearGradient>
<linearGradient id="paint82_linear" x1="386.926" y1="379.777" x2="684.832" y2="504.086" gradientUnits="userSpaceOnUse">
<stop offset="0.0353535" stop-color="#9F19AB"/>
<stop offset="0.2438" stop-color="#AE25B1"/>
<stop offset="0.6455" stop-color="#D744BF"/>
<stop offset="1" stop-color="#FF63CE"/>
</linearGradient>
<linearGradient id="paint83_linear" x1="613.396" y1="593.6" x2="608.028" y2="593.6" gradientUnits="userSpaceOnUse">
<stop offset="0.0252525" stop-color="#C7BCD6"/>
<stop offset="0.297" stop-color="#E2E2E6"/>
<stop offset="0.3333" stop-color="#E6E7E8"/>
<stop offset="0.4267" stop-color="#DCDAE2"/>
<stop offset="0.5911" stop-color="#D0C9DB"/>
<stop offset="0.7722" stop-color="#C9BFD7"/>
<stop offset="1" stop-color="#C7BCD6"/>
</linearGradient>
<linearGradient id="paint84_linear" x1="592.644" y1="581.6" x2="587.276" y2="581.6" gradientUnits="userSpaceOnUse">
<stop offset="0.0252525" stop-color="#C7BCD6"/>
<stop offset="0.297" stop-color="#E2E2E6"/>
<stop offset="0.3333" stop-color="#E6E7E8"/>
<stop offset="0.4267" stop-color="#DCDAE2"/>
<stop offset="0.5911" stop-color="#D0C9DB"/>
<stop offset="0.7722" stop-color="#C9BFD7"/>
<stop offset="1" stop-color="#C7BCD6"/>
</linearGradient>
<linearGradient id="paint85_linear" x1="571.896" y1="569.4" x2="566.524" y2="569.4" gradientUnits="userSpaceOnUse">
<stop offset="0.0252525" stop-color="#C7BCD6"/>
<stop offset="0.297" stop-color="#E2E2E6"/>
<stop offset="0.3333" stop-color="#E6E7E8"/>
<stop offset="0.4267" stop-color="#DCDAE2"/>
<stop offset="0.5911" stop-color="#D0C9DB"/>
<stop offset="0.7722" stop-color="#C9BFD7"/>
<stop offset="1" stop-color="#C7BCD6"/>
</linearGradient>
<linearGradient id="paint86_linear" x1="551.144" y1="557.2" x2="545.772" y2="557.2" gradientUnits="userSpaceOnUse">
<stop offset="0.0252525" stop-color="#C7BCD6"/>
<stop offset="0.297" stop-color="#E2E2E6"/>
<stop offset="0.3333" stop-color="#E6E7E8"/>
<stop offset="0.4267" stop-color="#DCDAE2"/>
<stop offset="0.5911" stop-color="#D0C9DB"/>
<stop offset="0.7722" stop-color="#C9BFD7"/>
<stop offset="1" stop-color="#C7BCD6"/>
</linearGradient>
<linearGradient id="paint87_linear" x1="530.392" y1="544.8" x2="525.02" y2="544.8" gradientUnits="userSpaceOnUse">
<stop offset="0.0252525" stop-color="#C7BCD6"/>
<stop offset="0.297" stop-color="#E2E2E6"/>
<stop offset="0.3333" stop-color="#E6E7E8"/>
<stop offset="0.4267" stop-color="#DCDAE2"/>
<stop offset="0.5911" stop-color="#D0C9DB"/>
<stop offset="0.7722" stop-color="#C9BFD7"/>
<stop offset="1" stop-color="#C7BCD6"/>
</linearGradient>
<linearGradient id="paint88_linear" x1="509.64" y1="532.6" x2="504.272" y2="532.6" gradientUnits="userSpaceOnUse">
<stop offset="0.0252525" stop-color="#C7BCD6"/>
<stop offset="0.297" stop-color="#E2E2E6"/>
<stop offset="0.3333" stop-color="#E6E7E8"/>
<stop offset="0.4267" stop-color="#DCDAE2"/>
<stop offset="0.5911" stop-color="#D0C9DB"/>
<stop offset="0.7722" stop-color="#C9BFD7"/>
<stop offset="1" stop-color="#C7BCD6"/>
</linearGradient>
<linearGradient id="paint89_linear" x1="488.892" y1="520.6" x2="483.52" y2="520.6" gradientUnits="userSpaceOnUse">
<stop offset="0.0252525" stop-color="#C7BCD6"/>
<stop offset="0.297" stop-color="#E2E2E6"/>
<stop offset="0.3333" stop-color="#E6E7E8"/>
<stop offset="0.4267" stop-color="#DCDAE2"/>
<stop offset="0.5911" stop-color="#D0C9DB"/>
<stop offset="0.7722" stop-color="#C9BFD7"/>
<stop offset="1" stop-color="#C7BCD6"/>
</linearGradient>
<linearGradient id="paint90_linear" x1="468.14" y1="508.4" x2="462.768" y2="508.4" gradientUnits="userSpaceOnUse">
<stop offset="0.0252525" stop-color="#C7BCD6"/>
<stop offset="0.297" stop-color="#E2E2E6"/>
<stop offset="0.3333" stop-color="#E6E7E8"/>
<stop offset="0.4267" stop-color="#DCDAE2"/>
<stop offset="0.5911" stop-color="#D0C9DB"/>
<stop offset="0.7722" stop-color="#C9BFD7"/>
<stop offset="1" stop-color="#C7BCD6"/>
</linearGradient>
<linearGradient id="paint91_linear" x1="447.388" y1="496" x2="442.016" y2="496" gradientUnits="userSpaceOnUse">
<stop offset="0.0252525" stop-color="#C7BCD6"/>
<stop offset="0.297" stop-color="#E2E2E6"/>
<stop offset="0.3333" stop-color="#E6E7E8"/>
<stop offset="0.4267" stop-color="#DCDAE2"/>
<stop offset="0.5911" stop-color="#D0C9DB"/>
<stop offset="0.7722" stop-color="#C9BFD7"/>
<stop offset="1" stop-color="#C7BCD6"/>
</linearGradient>
<linearGradient id="paint92_linear" x1="426.636" y1="483.8" x2="421.264" y2="483.8" gradientUnits="userSpaceOnUse">
<stop offset="0.0252525" stop-color="#C7BCD6"/>
<stop offset="0.297" stop-color="#E2E2E6"/>
<stop offset="0.3333" stop-color="#E6E7E8"/>
<stop offset="0.4267" stop-color="#DCDAE2"/>
<stop offset="0.5911" stop-color="#D0C9DB"/>
<stop offset="0.7722" stop-color="#C9BFD7"/>
<stop offset="1" stop-color="#C7BCD6"/>
</linearGradient>
<linearGradient id="paint93_linear" x1="405.884" y1="471.4" x2="400.512" y2="471.4" gradientUnits="userSpaceOnUse">
<stop offset="0.0252525" stop-color="#C7BCD6"/>
<stop offset="0.297" stop-color="#E2E2E6"/>
<stop offset="0.3333" stop-color="#E6E7E8"/>
<stop offset="0.4267" stop-color="#DCDAE2"/>
<stop offset="0.5911" stop-color="#D0C9DB"/>
<stop offset="0.7722" stop-color="#C9BFD7"/>
<stop offset="1" stop-color="#C7BCD6"/>
</linearGradient>
<linearGradient id="paint94_linear" x1="385.132" y1="459.2" x2="379.762" y2="459.2" gradientUnits="userSpaceOnUse">
<stop offset="0.0252525" stop-color="#C7BCD6"/>
<stop offset="0.297" stop-color="#E2E2E6"/>
<stop offset="0.3333" stop-color="#E6E7E8"/>
<stop offset="0.4267" stop-color="#DCDAE2"/>
<stop offset="0.5911" stop-color="#D0C9DB"/>
<stop offset="0.7722" stop-color="#C9BFD7"/>
<stop offset="1" stop-color="#C7BCD6"/>
</linearGradient>
<linearGradient id="paint95_linear" x1="745.34" y1="526.8" x2="739.972" y2="526.8" gradientUnits="userSpaceOnUse">
<stop offset="0.0252525" stop-color="#C7BCD6"/>
<stop offset="0.297" stop-color="#E2E2E6"/>
<stop offset="0.3333" stop-color="#E6E7E8"/>
<stop offset="0.4267" stop-color="#DCDAE2"/>
<stop offset="0.5911" stop-color="#D0C9DB"/>
<stop offset="0.7722" stop-color="#C9BFD7"/>
<stop offset="1" stop-color="#C7BCD6"/>
</linearGradient>
<linearGradient id="paint96_linear" x1="729.116" y1="536" x2="723.744" y2="536" gradientUnits="userSpaceOnUse">
<stop offset="0.0252525" stop-color="#C7BCD6"/>
<stop offset="0.297" stop-color="#E2E2E6"/>
<stop offset="0.3333" stop-color="#E6E7E8"/>
<stop offset="0.4267" stop-color="#DCDAE2"/>
<stop offset="0.5911" stop-color="#D0C9DB"/>
<stop offset="0.7722" stop-color="#C9BFD7"/>
<stop offset="1" stop-color="#C7BCD6"/>
</linearGradient>
<linearGradient id="paint97_linear" x1="712.888" y1="545.2" x2="707.516" y2="545.2" gradientUnits="userSpaceOnUse">
<stop offset="0.0252525" stop-color="#C7BCD6"/>
<stop offset="0.297" stop-color="#E2E2E6"/>
<stop offset="0.3333" stop-color="#E6E7E8"/>
<stop offset="0.4267" stop-color="#DCDAE2"/>
<stop offset="0.5911" stop-color="#D0C9DB"/>
<stop offset="0.7722" stop-color="#C9BFD7"/>
<stop offset="1" stop-color="#C7BCD6"/>
</linearGradient>
<linearGradient id="paint98_linear" x1="696.664" y1="554.4" x2="691.292" y2="554.4" gradientUnits="userSpaceOnUse">
<stop offset="0.0252525" stop-color="#C7BCD6"/>
<stop offset="0.297" stop-color="#E2E2E6"/>
<stop offset="0.3333" stop-color="#E6E7E8"/>
<stop offset="0.4267" stop-color="#DCDAE2"/>
<stop offset="0.5911" stop-color="#D0C9DB"/>
<stop offset="0.7722" stop-color="#C9BFD7"/>
<stop offset="1" stop-color="#C7BCD6"/>
</linearGradient>
<linearGradient id="paint99_linear" x1="680.436" y1="563.6" x2="675.064" y2="563.6" gradientUnits="userSpaceOnUse">
<stop offset="0.0252525" stop-color="#C7BCD6"/>
<stop offset="0.297" stop-color="#E2E2E6"/>
<stop offset="0.3333" stop-color="#E6E7E8"/>
<stop offset="0.4267" stop-color="#DCDAE2"/>
<stop offset="0.5911" stop-color="#D0C9DB"/>
<stop offset="0.7722" stop-color="#C9BFD7"/>
<stop offset="1" stop-color="#C7BCD6"/>
</linearGradient>
<linearGradient id="paint100_linear" x1="664.212" y1="572.4" x2="658.84" y2="572.4" gradientUnits="userSpaceOnUse">
<stop offset="0.0252525" stop-color="#C7BCD6"/>
<stop offset="0.297" stop-color="#E2E2E6"/>
<stop offset="0.3333" stop-color="#E6E7E8"/>
<stop offset="0.4267" stop-color="#DCDAE2"/>
<stop offset="0.5911" stop-color="#D0C9DB"/>
<stop offset="0.7722" stop-color="#C9BFD7"/>
<stop offset="1" stop-color="#C7BCD6"/>
</linearGradient>
<linearGradient id="paint101_linear" x1="647.984" y1="581.6" x2="642.612" y2="581.6" gradientUnits="userSpaceOnUse">
<stop offset="0.0252525" stop-color="#C7BCD6"/>
<stop offset="0.297" stop-color="#E2E2E6"/>
<stop offset="0.3333" stop-color="#E6E7E8"/>
<stop offset="0.4267" stop-color="#DCDAE2"/>
<stop offset="0.5911" stop-color="#D0C9DB"/>
<stop offset="0.7722" stop-color="#C9BFD7"/>
<stop offset="1" stop-color="#C7BCD6"/>
</linearGradient>
<linearGradient id="paint102_linear" x1="631.76" y1="590.8" x2="626.388" y2="590.8" gradientUnits="userSpaceOnUse">
<stop offset="0.0252525" stop-color="#C7BCD6"/>
<stop offset="0.297" stop-color="#E2E2E6"/>
<stop offset="0.3333" stop-color="#E6E7E8"/>
<stop offset="0.4267" stop-color="#DCDAE2"/>
<stop offset="0.5911" stop-color="#D0C9DB"/>
<stop offset="0.7722" stop-color="#C9BFD7"/>
<stop offset="1" stop-color="#C7BCD6"/>
</linearGradient>
<radialGradient id="paint103_radial" cx="0" cy="0" r="1" gradientUnits="userSpaceOnUse" gradientTransform="translate(610.75 423.325) rotate(180) scale(132.335 132.336)">
<stop offset="0.2929" stop-color="#9F19AB"/>
<stop offset="0.425" stop-color="#AE25B1"/>
<stop offset="0.6794" stop-color="#D744BF"/>
<stop offset="0.904" stop-color="#FF63CE"/>
<stop offset="1" stop-color="#B328B2"/>
</radialGradient>
<radialGradient id="paint104_radial" cx="0" cy="0" r="1" gradientUnits="userSpaceOnUse" gradientTransform="translate(631.175 465.222) rotate(180) scale(128.764)">
<stop offset="0.2929" stop-color="#9F19AB"/>
<stop offset="0.425" stop-color="#AE25B1"/>
<stop offset="0.6794" stop-color="#D744BF"/>
<stop offset="0.904" stop-color="#FF63CE"/>
<stop offset="1" stop-color="#B328B2"/>
</radialGradient>
<linearGradient id="paint105_linear" x1="520.4" y1="381" x2="650.248" y2="381" gradientUnits="userSpaceOnUse">
<stop offset="0.0353535" stop-color="#9F19AB"/>
<stop offset="0.2438" stop-color="#AE25B1"/>
<stop offset="0.6455" stop-color="#D744BF"/>
<stop offset="1" stop-color="#FF63CE"/>
</linearGradient>
<linearGradient id="paint106_linear" x1="462.144" y1="295.2" x2="594.544" y2="295.2" gradientUnits="userSpaceOnUse">
<stop offset="0.0353535" stop-color="#138BBD"/>
<stop offset="0.2257" stop-color="#169AC7"/>
<stop offset="0.5946" stop-color="#1FC3DF"/>
<stop offset="1" stop-color="#2AF6FF"/>
</linearGradient>
</defs>
</svg>
